<svg width="22" height="24" viewBox="0 0 22 24" fill="none" xmlns="http://www.w3.org/2000/svg">
<path fill-rule="evenodd" clip-rule="evenodd" d="M12.75 24H8.38C7.82772 24 7.38 23.5524 7.38 23.0004C7.38 22.4483 7.82772 22.0008 8.38 22.0008H11.75V19.6518C11.7511 19.4978 11.6897 19.35 11.58 19.2419C11.4297 19.0977 11.2284 19.0186 11.02 19.022C6.64804 19.0609 3.06945 15.5553 3.02 11.1853V2.99874C3.02 1.34258 4.36315 0 6.02 0H16.02C17.6769 0 19.02 1.34258 19.02 2.99874V11.1853C19.0235 13.582 17.9155 15.845 16.02 17.3127C15.7428 17.5653 15.3475 17.6416 14.9962 17.5103C14.6448 17.379 14.3965 17.0622 14.3531 16.6898C14.3096 16.3174 14.4783 15.952 14.79 15.7434C16.2001 14.6552 17.0271 12.976 17.03 11.1953V3.00874C17.03 2.45669 16.5823 2.00916 16.03 2.00916H6C5.44772 2.00916 5 2.45669 5 3.00874V11.1953C5.04936 14.4612 7.73256 17.0718 11 17.0329C11.7465 17.0233 12.4661 17.311 13 17.8325C13.4862 18.3131 13.7599 18.9682 13.76 19.6518V23.0004C13.76 23.2672 13.6533 23.523 13.4636 23.7107C13.2739 23.8985 13.0169 24.0026 12.75 24ZM2 11.0054V6.00748C2 5.45543 1.55228 5.0079 1 5.0079C0.447715 5.0079 0 5.45543 0 6.00748V11.0054C0 11.5574 0.447715 12.005 1 12.005C1.55228 12.005 2 11.5574 2 11.0054ZM22 11.0054V6.00748C22 5.45543 21.5523 5.0079 21 5.0079C20.4477 5.0079 20 5.45543 20 6.00748V11.0054C20 11.5574 20.4477 12.005 21 12.005C21.5523 12.005 22 11.5574 22 11.0054Z" fill="white"/>
</svg>
