<svg width="166" height="166" viewBox="0 0 166 166" fill="none" xmlns="http://www.w3.org/2000/svg">
<path d="M48.8061 37.4396C47.1461 56.9512 51.6779 77.1236 62.3285 93.6306C74.4266 112.372 93.8419 125.881 115.412 131.346C127.156 134.375 139.425 134.765 151.338 132.488C153.433 132.08 152.546 128.879 150.455 129.287C130.07 133.271 108.623 128.331 91.1328 117.382C81.404 111.288 73.0332 103.258 66.5414 93.7905C60.0496 84.3229 55.5755 73.6206 53.3977 62.3496C51.8286 54.1479 51.3962 45.7692 52.1128 37.4496C52.2954 35.3181 48.9721 35.3314 48.7928 37.4496L48.8061 37.4396Z" fill="black"/>
<path d="M130.544 124.025L153.91 131.09L153.512 128.056L131.417 142.7C129.644 143.872 131.308 146.751 133.077 145.565L155.189 130.941C155.462 130.769 155.68 130.523 155.817 130.232C155.954 129.94 156.005 129.615 155.963 129.296C155.921 128.976 155.788 128.675 155.58 128.429C155.372 128.183 155.098 128.001 154.79 127.906L131.417 120.821C129.366 120.204 128.492 123.408 130.534 124.025H130.544Z" fill="black"/>
</svg>
