<svg width="20" height="20" viewBox="0 0 20 20" fill="none" xmlns="http://www.w3.org/2000/svg">
<path d="M12.8245 4.34171L13.9995 6.69171C14.1579 7.01671 14.5829 7.32504 14.9412 7.39171L17.0662 7.74171C18.4245 7.96671 18.7412 8.95004 17.7662 9.93338L16.1079 11.5917C15.8329 11.8667 15.6745 12.4084 15.7662 12.8L16.2412 14.85C16.6162 16.4667 15.7495 17.1 14.3245 16.25L12.3329 15.0667C11.9745 14.85 11.3745 14.85 11.0162 15.0667L9.02454 16.25C7.59955 17.0917 6.73288 16.4667 7.10788 14.85L7.58288 12.8C7.65788 12.4 7.49954 11.8584 7.22454 11.5834L5.56621 9.92504C4.59121 8.95004 4.90788 7.96671 6.26621 7.73338L8.39121 7.38338C8.74954 7.32504 9.17454 7.00838 9.33288 6.68338L10.5079 4.33338C11.1495 3.06671 12.1829 3.06671 12.8245 4.34171Z" fill="white"/>
<path d="M6.66667 4.79167H1.66667C1.325 4.79167 1.04167 4.50833 1.04167 4.16667C1.04167 3.825 1.325 3.54167 1.66667 3.54167H6.66667C7.00833 3.54167 7.29167 3.825 7.29167 4.16667C7.29167 4.50833 7.00833 4.79167 6.66667 4.79167Z" fill="white"/>
<path d="M4.16667 16.4583H1.66667C1.325 16.4583 1.04167 16.175 1.04167 15.8333C1.04167 15.4917 1.325 15.2083 1.66667 15.2083H4.16667C4.50833 15.2083 4.79167 15.4917 4.79167 15.8333C4.79167 16.175 4.50833 16.4583 4.16667 16.4583Z" fill="white"/>
<path d="M2.5 10.625H1.66667C1.325 10.625 1.04167 10.3417 1.04167 10C1.04167 9.65833 1.325 9.375 1.66667 9.375H2.5C2.84167 9.375 3.125 9.65833 3.125 10C3.125 10.3417 2.84167 10.625 2.5 10.625Z" fill="white"/>
</svg>
