<svg width="140" height="128" viewBox="0 0 140 128" fill="none" xmlns="http://www.w3.org/2000/svg">
<g clip-path="url(#clip0_139_64770)">
<path fill-rule="evenodd" clip-rule="evenodd" d="M12.0257 9.5184C11.7894 9.46394 11.5595 9.40136 11.3336 9.32884C10.9948 9.2202 10.6718 9.0664 10.3403 8.94016C10.1996 8.88672 9.83047 8.753 9.78115 8.72469C9.35239 8.47555 9.4352 8.08062 9.46733 7.9684C9.48144 7.9135 9.64317 7.35689 10.2814 7.48717C11.0619 7.646 11.8076 7.90256 12.4989 8.24787C13.1526 8.38285 13.8382 8.43424 14.4932 8.39827C17.0985 8.25467 18.1373 6.35185 19.0144 4.1872C19.1474 3.85349 19.5224 3.68621 19.8596 3.8058C20.1993 3.92642 20.3844 4.29272 20.2768 4.63523C19.892 5.88898 19.9701 8.42912 20.6698 9.58652C20.8163 9.8287 21.2875 10.1297 21.7367 10.4557C22.3598 10.909 22.9624 11.3907 23.1581 11.7315C23.189 11.7832 23.4775 12.3765 23.4944 12.5247C23.5328 12.8801 23.3446 13.0738 23.2055 13.1704C23.0664 13.267 22.8382 13.347 22.538 13.2922C22.2244 13.2349 21.6557 12.9373 21.5252 12.8945C21.0516 12.7392 20.1128 12.4572 19.2609 12.3231C18.8022 12.251 18.3729 12.199 18.1078 12.2977C17.1267 12.6631 16.7927 13.7597 16.5403 14.6952C16.5104 14.8022 16.4829 14.9103 16.453 15.0171C16.4095 15.4225 16.3294 15.8389 16.2079 16.2637C16.0253 16.9055 15.4203 16.7724 15.3808 16.7624C15.2942 16.7399 14.8548 16.6072 14.878 16.0759C14.8815 16.0184 14.9541 15.6131 14.9813 15.4567C15.0196 15.2389 15.0687 15.023 15.1205 14.8074C15.3396 12.4484 13.9855 10.5558 12.0257 9.5184ZM14.5792 9.73724C16.5397 9.62602 17.8265 8.75649 18.7739 7.48598L18.7738 7.48622C18.8693 8.56463 19.1147 9.61137 19.5201 10.2804C19.6734 10.5341 20.0557 10.8671 20.4985 11.2082C20.0044 11.0883 19.4698 10.9815 18.9942 10.9361C18.4515 10.8839 17.9695 10.9167 17.6392 11.0394C17.0022 11.2767 16.5234 11.7076 16.1567 12.2323C15.8314 11.287 15.2852 10.4459 14.5792 9.73724Z" fill="#F9A775"/>
</g>
<g clip-path="url(#clip1_139_64770)">
<path fill-rule="evenodd" clip-rule="evenodd" d="M130.591 93.2625C130.439 93.2275 130.291 93.1873 130.146 93.1407C129.928 93.0709 129.721 92.972 129.508 92.8909C129.417 92.8566 129.18 92.7707 129.149 92.7525C128.873 92.5924 128.926 92.3386 128.947 92.2665C128.956 92.2312 129.06 91.8735 129.47 91.9573C129.972 92.0593 130.451 92.2242 130.895 92.4461C131.315 92.5328 131.755 92.5658 132.176 92.5427C133.851 92.4504 134.518 91.2277 135.082 89.8368C135.167 89.6223 135.408 89.5148 135.625 89.5917C135.843 89.6692 135.962 89.9046 135.893 90.1247C135.646 90.9303 135.696 92.5625 136.145 93.3063C136.24 93.4619 136.542 93.6553 136.831 93.8648C137.231 94.1561 137.619 94.4656 137.744 94.6846C137.764 94.7178 137.95 95.099 137.96 95.1943C137.985 95.4227 137.864 95.5471 137.775 95.6092C137.685 95.6713 137.539 95.7227 137.346 95.6874C137.144 95.6507 136.779 95.4594 136.695 95.4319C136.391 95.3321 135.787 95.1509 135.24 95.0647C134.945 95.0184 134.669 94.985 134.499 95.0484C133.869 95.2832 133.654 95.9879 133.492 96.589C133.473 96.6578 133.455 96.7272 133.436 96.7958C133.408 97.0563 133.356 97.3239 133.278 97.5969C133.161 98.0093 132.772 97.9238 132.747 97.9174C132.691 97.9029 132.409 97.8176 132.424 97.4762C132.426 97.4393 132.473 97.1789 132.49 97.0784C132.515 96.9384 132.546 96.7996 132.58 96.6611C132.72 95.1452 131.85 93.9291 130.591 93.2625ZM132.232 93.4031C133.491 93.3316 134.318 92.7729 134.927 91.9565L134.927 91.9567C134.988 92.6496 135.146 93.3222 135.407 93.7521C135.505 93.9152 135.751 94.1292 136.035 94.3483C135.718 94.2713 135.374 94.2027 135.069 94.1735C134.72 94.1399 134.41 94.161 134.198 94.2399C133.789 94.3924 133.481 94.6692 133.245 95.0064C133.036 94.399 132.685 93.8585 132.232 93.4031Z" fill="#F9A775"/>
</g>
<g clip-path="url(#clip2_139_64770)">
<path fill-rule="evenodd" clip-rule="evenodd" d="M3.76845 120.344C3.59124 120.303 3.41878 120.256 3.24939 120.202C2.99527 120.121 2.75303 120.005 2.5044 119.911C2.39889 119.871 2.12204 119.77 2.08506 119.749C1.76349 119.562 1.82559 119.266 1.84969 119.182C1.86027 119.141 1.98157 118.723 2.46023 118.821C3.04562 118.94 3.60488 119.132 4.12337 119.391C4.61365 119.493 5.12781 119.531 5.61906 119.504C7.57305 119.396 8.35213 117.969 9.00998 116.346C9.10972 116.096 9.39101 115.97 9.6439 116.06C9.89865 116.15 10.0375 116.425 9.95681 116.682C9.66823 117.622 9.72675 119.527 10.2515 120.395C10.3615 120.577 10.7148 120.803 11.0517 121.047C11.5191 121.387 11.971 121.748 12.1178 122.004C12.1409 122.043 12.3573 122.488 12.37 122.599C12.3988 122.866 12.2576 123.011 12.1533 123.083C12.049 123.156 11.8778 123.216 11.6527 123.175C11.4175 123.132 10.991 122.908 10.8931 122.876C10.5379 122.76 9.83382 122.548 9.19489 122.448C8.85082 122.394 8.52884 122.355 8.33005 122.429C7.59421 122.703 7.34373 123.525 7.15444 124.227C7.13196 124.307 7.11135 124.388 7.08895 124.468C7.0563 124.772 6.99621 125.085 6.90514 125.403C6.76818 125.885 6.3144 125.785 6.28479 125.777C6.21983 125.76 5.89029 125.661 5.90766 125.262C5.91033 125.219 5.96476 124.915 5.98519 124.798C6.01386 124.635 6.05069 124.473 6.08959 124.311C6.25386 122.542 5.23835 121.122 3.76845 120.344ZM5.68357 120.508C7.15398 120.425 8.11908 119.773 8.82964 118.82L8.82956 118.82C8.90116 119.629 9.08519 120.414 9.38923 120.916C9.50427 121.106 9.79093 121.356 10.1231 121.612C9.75249 121.522 9.35158 121.442 8.99481 121.408C8.58782 121.368 8.22633 121.393 7.97857 121.485C7.50087 121.663 7.14172 121.986 6.86673 122.38C6.62272 121.671 6.21308 121.04 5.68357 120.508Z" fill="#F9A775" fill-opacity="0.6"/>
</g>
<defs>
<clipPath id="clip0_139_64770">
<rect width="14.9901" height="14.9991" fill="white" transform="matrix(0.385164 -0.925971 0.926284 0.384407 7.00059 13.8802)"/>
</clipPath>
<clipPath id="clip1_139_64770">
<rect width="9.63234" height="9.63814" fill="white" transform="matrix(0.385164 -0.925971 0.926284 0.384407 127.362 96.0651)"/>
</clipPath>
<clipPath id="clip2_139_64770">
<rect width="11.2426" height="11.2493" fill="white" transform="matrix(0.385164 -0.925971 0.926284 0.384407 0 123.616)"/>
</clipPath>
</defs>
</svg>
