<svg width="21" height="17" viewBox="0 0 21 17" fill="none" xmlns="http://www.w3.org/2000/svg">
<path d="M20.9168 2.01324C20.1481 2.35488 19.3201 2.58497 18.4521 2.68955C19.3393 2.15791 20.0174 1.31776 20.3398 0.315495C19.5101 0.807039 18.5915 1.16437 17.6137 1.3561C16.8328 0.521176 15.7155 0 14.4831 0C11.7117 0 9.67575 2.58497 10.3015 5.26929C6.73694 5.08975 3.57328 3.38155 1.4572 0.786122C0.332925 2.71395 0.875019 5.23791 2.78542 6.51558C2.08296 6.49292 1.42234 6.29944 0.843643 5.97871C0.796581 7.96581 2.22241 9.82566 4.2862 10.2405C3.6831 10.4044 3.02073 10.4427 2.34791 10.3137C2.89349 12.0184 4.48142 13.2578 6.35696 13.2926C4.5494 14.708 2.27819 15.3407 0 15.0723C1.89994 16.2907 4.15372 17.0001 6.57658 17.0001C14.5459 17.0001 19.0465 10.2701 18.7745 4.2339C19.6147 3.6308 20.3416 2.87431 20.9168 2.01324Z" fill="#19A7CE"/>
</svg>
