<svg width="10" height="10" viewBox="0 0 10 10" fill="none" xmlns="http://www.w3.org/2000/svg">
<path d="M7.49976 4.4791C7.32893 4.4791 7.18726 4.33744 7.18726 4.1666V3.33328C7.18726 2.02078 6.81643 1.14579 4.99978 1.14579C3.18312 1.14579 2.81229 2.02078 2.81229 3.33328V4.1666C2.81229 4.33744 2.67062 4.4791 2.49979 4.4791C2.32896 4.4791 2.18729 4.33744 2.18729 4.1666V3.33328C2.18729 2.12495 2.47895 0.520789 4.99978 0.520789C7.5206 0.520789 7.81226 2.12495 7.81226 3.33328V4.1666C7.81226 4.33744 7.6706 4.4791 7.49976 4.4791Z" fill="white"/>
<path d="M5.00031 8.02084C4.25448 8.02084 3.64615 7.41251 3.64615 6.66668C3.64615 5.92085 4.25448 5.31252 5.00031 5.31252C5.74614 5.31252 6.35447 5.92085 6.35447 6.66668C6.35447 7.41251 5.74614 8.02084 5.00031 8.02084ZM5.00031 5.93752C4.60031 5.93752 4.27114 6.26669 4.27114 6.66668C4.27114 7.06668 4.60031 7.39585 5.00031 7.39585C5.40031 7.39585 5.72947 7.06668 5.72947 6.66668C5.72947 6.26669 5.40031 5.93752 5.00031 5.93752Z" fill="white"/>
<path d="M7.08363 9.47914H2.91698C1.07949 9.47914 0.521163 8.92081 0.521163 7.08331V6.24999C0.521163 4.41249 1.07949 3.85416 2.91698 3.85416H7.08363C8.92112 3.85416 9.47945 4.41249 9.47945 6.24999V7.08331C9.47945 8.92081 8.92112 9.47914 7.08363 9.47914ZM2.91698 4.47916C1.42533 4.47916 1.14616 4.76249 1.14616 6.24999V7.08331C1.14616 8.57081 1.42533 8.85414 2.91698 8.85414H7.08363C8.57529 8.85414 8.85445 8.57081 8.85445 7.08331V6.24999C8.85445 4.76249 8.57529 4.47916 7.08363 4.47916H2.91698Z" fill="white"/>
</svg>
