<svg width="114" height="114" viewBox="0 0 114 114" fill="none" xmlns="http://www.w3.org/2000/svg">
<path fill-rule="evenodd" clip-rule="evenodd" d="M57 114C88.4802 114 114 88.4802 114 57C114 25.5198 88.4802 0 57 0C25.5198 0 0 25.5198 0 57C0 88.4802 25.5198 114 57 114Z" fill="#19A7CE"/>
<path fill-rule="evenodd" clip-rule="evenodd" d="M57.0001 109.44C85.9619 109.44 109.44 85.9619 109.44 57.0001C109.44 28.0382 85.9619 4.56006 57.0001 4.56006C28.0382 4.56006 4.56006 28.0382 4.56006 57.0001C4.56006 85.9619 28.0382 109.44 57.0001 109.44Z" fill="white"/>
<path d="M75 45L50.25 70L39 58.6364" stroke="#19A7CE" stroke-width="10" stroke-linecap="round" stroke-linejoin="round"/>
</svg>
