<svg width="14" height="14" viewBox="0 0 14 14" fill="none" xmlns="http://www.w3.org/2000/svg">
<path d="M12.6267 6.35396L4.95274 1.49462C4.82348 1.41272 4.67473 1.36674 4.5218 1.36141C4.36888 1.35608 4.21729 1.39159 4.08264 1.46429C3.94799 1.53699 3.83515 1.64425 3.75571 1.77504C3.67627 1.90582 3.63312 2.05541 3.63068 2.20841L3.47985 11.6811C3.47753 11.8341 3.51599 11.9849 3.59125 12.1181C3.66651 12.2512 3.77587 12.362 3.90809 12.4389C4.04031 12.5158 4.19063 12.5562 4.3436 12.5558C4.49657 12.5554 4.64668 12.5143 4.7785 12.4367L12.6033 7.82411C12.7304 7.74914 12.8362 7.64277 12.9104 7.51521C12.9846 7.38764 13.0248 7.24316 13.0271 7.0956C13.0295 6.94804 12.9939 6.80235 12.9238 6.67249C12.8537 6.54263 12.7514 6.43295 12.6267 6.35396Z" fill="#F9A775"/>
</svg>
