<svg width="20" height="20" viewBox="0 0 20 20" fill="none" xmlns="http://www.w3.org/2000/svg">
<path d="M11.5755 2.39999L7.66716 1.78333C4.40883 1.27499 2.90049 2.37499 2.38383 5.63333L1.76716 9.54166C1.43383 11.675 1.78383 13.0583 2.99216 13.9C3.62549 14.35 4.49216 14.65 5.61716 14.825L9.52549 15.4417C12.7838 15.95 14.2922 14.85 14.8088 11.5917L15.4172 7.68333C15.5172 7.04166 15.5588 6.46666 15.5255 5.95833C15.4172 3.87499 14.1922 2.80833 11.5755 2.39999ZM6.86716 7.79166C5.89216 7.79166 5.10049 6.99999 5.10049 6.03333C5.10049 5.05833 5.89216 4.26666 6.86716 4.26666C7.83383 4.26666 8.62549 5.05833 8.62549 6.03333C8.62549 6.99999 7.83383 7.79166 6.86716 7.79166Z" fill="white"/>
<path d="M17.0829 11.2251L15.8329 14.9834C14.7912 18.1167 13.1245 18.9501 9.99119 17.9084L6.23285 16.6584C5.05785 16.2667 4.20785 15.7834 3.65785 15.1751C4.18285 15.3834 4.79119 15.5417 5.48285 15.6501L9.39952 16.2667C9.93285 16.3501 10.4329 16.3917 10.8995 16.3917C13.6495 16.3917 15.1245 14.9084 15.6329 11.7167L16.2412 7.80841C16.3245 7.32508 16.3579 6.90008 16.3579 6.50841C17.6245 7.55008 17.8079 9.03341 17.0829 11.2251Z" fill="white"/>
</svg>
