<svg width="29" height="29" viewBox="0 0 29 29" fill="none" xmlns="http://www.w3.org/2000/svg">
<path d="M24.4363 25.1105C23.9795 25.4911 23.5228 25.8717 23.066 26.2524C22.9138 26.3285 22.7615 26.4046 22.6093 26.4807C19.4881 28.6123 16.0625 29.2974 12.3323 28.8406C10.4292 28.6123 8.6783 27.851 6.92742 26.9375C6.69904 26.7853 6.47066 26.5569 6.24229 26.4046C4.71978 25.3389 3.34952 24.1209 2.43601 22.4461C2.43601 22.2938 2.43601 22.2177 2.28376 22.1416C2.35989 20.3146 3.34952 18.9443 5.48103 19.0966C7.15579 19.2488 8.83055 19.0204 10.5053 18.4876C10.5814 19.934 11.1904 20.6191 12.4085 20.7713C13.1697 20.8475 13.8548 20.6952 14.4638 20.2385C16.367 18.6398 18.194 17.1173 20.0971 15.5187C21.1629 14.6052 21.1629 13.6155 20.0971 12.6259C19.412 12.0169 18.7269 11.484 18.0417 10.875C18.2701 9.58089 18.4224 8.21063 18.5746 6.91649C18.7269 4.70885 20.4778 3.3386 22.6093 3.41472C23.066 3.41472 23.5989 3.49085 24.0557 3.56697C24.1318 3.56697 24.1318 3.56698 24.1318 3.6431C24.1318 3.79535 24.284 3.87147 24.4363 3.87147C26.8723 6.07911 28.2426 8.74351 28.7754 11.9408C29.6128 17.1934 28.0903 21.5326 24.4363 25.1105ZM27.5574 15.5948C27.5574 15.6709 27.5574 15.5187 27.5574 15.4426C27.4052 14.6813 26.5678 13.9962 25.8827 14.0723C25.1214 14.1484 24.4363 14.9097 24.284 15.8232C23.9034 18.3353 22.7615 20.3146 20.7823 21.9132C19.3359 23.0551 17.7372 23.588 15.9863 23.9686C15.149 24.1209 14.6161 24.9582 14.7683 25.7195C14.9206 26.5569 15.8341 27.1659 16.6715 27.0136C20.0971 26.4046 22.9138 24.806 25.0453 22.0655C26.4917 20.2385 27.3291 18.1069 27.5574 15.5948Z" fill="#1389A9"/>
<path d="M8.75472 1.13123C10.2011 0.674479 11.6475 0.217725 13.2461 0.065474C16.5195 -0.239028 19.5645 0.522228 22.3051 2.27311C22.9141 2.65374 23.5992 3.03437 24.0559 3.64338C23.5992 3.56725 23.0663 3.49112 22.6096 3.49112C20.4019 3.49112 18.7272 4.86138 18.5749 6.99289C18.4988 8.36315 18.2704 9.65729 18.042 10.9514C16.824 9.96179 15.606 8.89603 14.388 7.9064C13.5506 7.22127 12.6371 7.14515 11.7236 7.6019C10.8101 7.98253 10.5817 8.74378 10.5817 9.65729C10.5817 12.6262 10.5817 15.5951 10.5817 18.564C8.9831 19.0969 7.30833 19.3252 5.55745 19.173C3.42593 19.0207 2.36018 20.391 2.36018 22.218C2.28405 22.1419 2.20793 22.0657 2.1318 21.9896C0.228663 18.7162 -0.456461 15.1383 0.304794 11.4082C0.609295 10.0379 1.14217 8.81991 1.59892 7.52578C1.67505 7.44965 1.67505 7.44965 1.75117 7.37352C3.12143 5.16588 4.79619 3.33887 7.00383 2.04474C7.53671 1.74023 8.14572 1.43573 8.75472 1.13123Z" fill="#19A7CE"/>
<path d="M10.5039 18.716C10.5039 15.7471 10.5039 12.7782 10.5039 9.80932C10.5039 8.89581 10.8084 8.13455 11.6458 7.75393C12.5593 7.29717 13.4728 7.3733 14.3102 8.05843C15.5282 9.04806 16.7462 10.1138 17.9642 11.1034C18.6493 11.7125 19.3345 12.2453 20.0196 12.8543C21.0854 13.7678 21.0854 14.8336 20.0196 15.7471C18.1926 17.3457 16.2895 18.8683 14.3863 20.4669C13.7773 20.9998 13.0922 21.152 12.3309 20.9998C11.189 20.8475 10.58 20.0863 10.5039 18.716Z" fill="white"/>
</svg>
