<svg width="20" height="20" viewBox="0 0 20 20" fill="none" xmlns="http://www.w3.org/2000/svg">
<path d="M13.1669 1.84157C12.8252 1.4999 12.2336 1.73323 12.2336 2.20823V5.11657C12.2336 6.33323 13.2669 7.34157 14.5252 7.34157C15.3169 7.3499 16.4169 7.3499 17.3586 7.3499C17.8336 7.3499 18.0836 6.79157 17.7502 6.45823C16.5502 5.2499 14.4002 3.0749 13.1669 1.84157Z" fill="white"/>
<path d="M17.0833 8.49167H14.675C12.7 8.49167 11.0917 6.88333 11.0917 4.90833V2.5C11.0917 2.04167 10.7167 1.66667 10.2583 1.66667H6.725C4.15833 1.66667 2.08333 3.33333 2.08333 6.30833V13.6917C2.08333 16.6667 4.15833 18.3333 6.725 18.3333H13.275C15.8417 18.3333 17.9167 16.6667 17.9167 13.6917V9.325C17.9167 8.86667 17.5417 8.49167 17.0833 8.49167ZM9.58333 14.7917H6.25C5.90833 14.7917 5.625 14.5083 5.625 14.1667C5.625 13.825 5.90833 13.5417 6.25 13.5417H9.58333C9.925 13.5417 10.2083 13.825 10.2083 14.1667C10.2083 14.5083 9.925 14.7917 9.58333 14.7917ZM11.25 11.4583H6.25C5.90833 11.4583 5.625 11.175 5.625 10.8333C5.625 10.4917 5.90833 10.2083 6.25 10.2083H11.25C11.5917 10.2083 11.875 10.4917 11.875 10.8333C11.875 11.175 11.5917 11.4583 11.25 11.4583Z" fill="white"/>
</svg>
