<svg width="24" height="24" viewBox="0 0 24 24" fill="none" xmlns="http://www.w3.org/2000/svg">
<path d="M17.2004 12.4C14.5504 12.4 12.4004 14.55 12.4004 17.2C12.4004 18.1 12.6504 18.95 13.1004 19.67C13.9304 21.06 15.4504 22 17.2004 22C18.9504 22 20.4804 21.06 21.3004 19.67C21.7404 18.95 22.0004 18.1 22.0004 17.2C22.0004 14.55 19.8504 12.4 17.2004 12.4ZM19.5804 16.57L17.0204 18.93C16.8804 19.06 16.6904 19.13 16.5104 19.13C16.3204 19.13 16.1304 19.06 15.9804 18.91L14.8004 17.73C14.5104 17.44 14.5104 16.96 14.8004 16.67C15.0904 16.38 15.5704 16.38 15.8604 16.67L16.5304 17.34L18.5604 15.46C18.8604 15.18 19.3404 15.2 19.6204 15.5C19.9004 15.81 19.8804 16.29 19.5804 16.57Z" fill="#F5698B"/>
<path d="M22 8.73001C22 9.92001 21.81 11.02 21.48 12.04C21.42 12.25 21.17 12.31 20.99 12.18C19.9 11.37 18.57 10.94 17.2 10.94C13.73 10.94 10.9 13.77 10.9 17.24C10.9 18.32 11.18 19.38 11.71 20.32C11.87 20.6 11.68 20.96 11.38 20.85C8.97 20.03 4.1 17.04 2.52 12.04C2.19 11.02 2 9.92001 2 8.73001C2 5.64001 4.49 3.14001 7.56 3.14001C9.37 3.14001 10.99 4.02001 12 5.37001C13.01 4.02001 14.63 3.14001 16.44 3.14001C19.51 3.14001 22 5.64001 22 8.73001Z" fill="#F5698B"/>
</svg>
