<svg width="24" height="24" viewBox="0 0 24 24" fill="none" xmlns="http://www.w3.org/2000/svg">
<path fill-rule="evenodd" clip-rule="evenodd" d="M10.4427 19C9.07495 19 7.96616 17.9741 7.96616 16.7086V11.3619C7.96616 10.9401 7.59656 10.5981 7.14064 10.5981C6.92212 10.5803 6.7058 10.6498 6.54626 10.7891C6.40347 10.9174 6.32304 11.0938 6.32337 11.2779C6.32608 11.9535 6.0274 12.6001 5.49785 13.0652C4.96397 13.5275 4.24592 13.7628 3.5166 13.7145L2.77363 13.6686C2.31771 13.6412 1.97214 13.277 2.00177 12.8552C2.03141 12.4333 2.42503 12.1136 2.88095 12.141L3.62392 12.1868C3.89746 12.204 4.16646 12.1155 4.36689 11.9424C4.56867 11.769 4.68248 11.5251 4.68058 11.2703C4.67885 10.6713 4.94121 10.0975 5.40704 9.68155C5.87492 9.27218 6.49674 9.04753 7.14064 9.05523C8.5084 9.05523 9.6172 10.0811 9.6172 11.3467V16.6933C9.6172 17.1151 9.98679 17.4571 10.4427 17.4571C10.8986 17.4571 11.2682 17.1151 11.2682 16.6933V8.29142C11.2682 7.0259 12.377 6 13.7448 6C15.1126 6 16.2214 7.0259 16.2214 8.29142V14.4019C16.2214 14.8237 16.591 15.1657 17.0469 15.1657C17.5028 15.1657 17.8724 14.8237 17.8724 14.4019C17.8724 13.1364 18.9812 12.1105 20.349 12.1105H21.1745C21.6304 12.1105 22 12.4524 22 12.8743C22 13.2961 21.6304 13.6381 21.1745 13.6381H20.349C19.893 13.6381 19.5234 13.98 19.5234 14.4019C19.5234 15.6674 18.4146 16.6933 17.0469 16.6933C15.6791 16.6933 14.5703 15.6674 14.5703 14.4019V8.29142C14.5703 7.86958 14.2007 7.52761 13.7448 7.52761C13.2889 7.52761 12.9193 7.86958 12.9193 8.29142V16.6933C12.9237 17.3037 12.6647 17.8904 12.1998 18.3235C11.7348 18.7565 11.1024 19 10.4427 19Z" fill="#1F267E"/>
</svg>
