<svg width="20" height="20" viewBox="0 0 20 20" fill="none" xmlns="http://www.w3.org/2000/svg">
<path d="M14.6081 6.475C14.5497 6.46667 14.4914 6.46667 14.4331 6.475C13.1414 6.43333 12.1164 5.375 12.1164 4.075C12.1164 2.75 13.1914 1.66667 14.5247 1.66667C15.8497 1.66667 16.9331 2.74167 16.9331 4.075C16.9247 5.375 15.8997 6.43333 14.6081 6.475Z" fill="white"/>
<path d="M17.3248 12.2501C16.3915 12.8751 15.0831 13.1084 13.8748 12.9501C14.1915 12.2668 14.3581 11.5084 14.3665 10.7084C14.3665 9.87509 14.1831 9.08342 13.8331 8.39175C15.0665 8.22509 16.3748 8.45842 17.3165 9.08342C18.6331 9.95009 18.6331 11.3751 17.3248 12.2501Z" fill="white"/>
<path d="M5.36655 6.475C5.42488 6.46667 5.48321 6.46667 5.54155 6.475C6.83321 6.43333 7.85821 5.375 7.85821 4.075C7.85821 2.74167 6.78321 1.66667 5.44988 1.66667C4.12488 1.66667 3.04988 2.74167 3.04988 4.075C3.04988 5.375 4.07488 6.43333 5.36655 6.475Z" fill="white"/>
<path d="M5.45849 10.7083C5.45849 11.5167 5.63349 12.2833 5.95016 12.975C4.77516 13.1 3.55016 12.85 2.65016 12.2583C1.33349 11.3833 1.33349 9.95833 2.65016 9.08333C3.54183 8.48333 4.80016 8.24166 5.98349 8.37499C5.64183 9.07499 5.45849 9.86666 5.45849 10.7083Z" fill="white"/>
<path d="M10.1004 13.225C10.0337 13.2167 9.95873 13.2167 9.88373 13.225C8.3504 13.175 7.1254 11.9167 7.1254 10.3667C7.13373 8.78333 8.40873 7.5 10.0004 7.5C11.5837 7.5 12.8671 8.78333 12.8671 10.3667C12.8587 11.9167 11.6421 13.175 10.1004 13.225Z" fill="white"/>
<path d="M7.39207 14.95C6.13373 15.7917 6.13373 17.175 7.39207 18.0084C8.8254 18.9667 11.1754 18.9667 12.6087 18.0084C13.8671 17.1667 13.8671 15.7834 12.6087 14.95C11.1837 13.9917 8.83373 13.9917 7.39207 14.95Z" fill="white"/>
</svg>
