<svg width="20" height="20" viewBox="0 0 20 20" fill="none" xmlns="http://www.w3.org/2000/svg">
<path fill-rule="evenodd" clip-rule="evenodd" d="M11.9945 1.85074C11.9182 0.815878 11.0544 0 10 0C8.89543 0 8 0.89543 8 2V8H2L1.85074 8.00549C0.815878 8.08183 0 8.94564 0 10C0 11.1046 0.89543 12 2 12H8V18L8.00549 18.1493C8.08183 19.1841 8.94564 20 10 20C11.1046 20 12 19.1046 12 18V12H18L18.1493 11.9945C19.1841 11.9182 20 11.0544 20 10C20 8.89543 19.1046 8 18 8H12V2L11.9945 1.85074Z" fill="white"/>
</svg>
