<svg width="123" height="41" viewBox="0 0 123 41" fill="none" xmlns="http://www.w3.org/2000/svg">
<g clip-path="url(#clip0_139_27673)">
<path d="M93.3288 30.6058C93.2153 30.6685 93.1143 30.7186 93.0134 30.7813C91.386 31.7217 89.6199 32.2358 87.7402 32.3988C87.0968 32.4489 86.4534 32.474 85.81 32.474C72.791 32.474 59.7719 32.474 46.7528 32.474C44.9614 32.474 43.2205 32.2232 41.5427 31.5587C40.975 31.333 40.4325 31.0822 39.9153 30.7562C39.726 30.6309 39.562 30.6309 39.3728 30.7562C38.1744 31.4835 36.8623 31.9348 35.4873 32.2107C34.5537 32.3862 33.6076 32.474 32.6614 32.474C29.23 32.474 25.7987 32.4489 22.3673 32.4489C21.2193 32.4489 20.0713 32.474 18.9233 32.474C17.4347 32.4614 15.9965 32.2107 14.6088 31.6841C13.1959 31.1449 11.9344 30.3801 10.8873 29.2767C10.042 28.3865 9.39866 27.3835 9.09589 26.1798C8.96974 25.6908 8.89404 25.2018 8.89404 24.7003C8.89404 23.3712 8.89404 22.0547 8.89404 20.7257C8.89404 19.6599 9.1842 18.6694 9.70143 17.7416C10.3448 16.6006 11.2279 15.6728 12.3002 14.933C13.9276 13.8296 15.7316 13.1902 17.6996 12.9896C20.0082 12.7514 22.2033 13.115 24.2974 14.0929C25.5716 14.6948 26.6817 15.5098 27.5774 16.6006C28.2965 17.4908 28.8264 18.4688 29.0534 19.5972C29.1544 20.0737 29.1796 20.5501 29.1796 21.0391C29.1796 22.7443 29.1796 24.4495 29.1796 26.1547C29.1796 26.3177 29.1796 26.4807 29.1796 26.6312C29.1922 26.8694 29.2174 26.8945 29.4823 26.8945C30.6304 26.8945 31.7784 26.8945 32.939 26.8819C33.431 26.8819 33.8977 26.7691 34.3519 26.5936C34.6799 26.4682 34.97 26.3052 35.2476 26.092C35.8027 25.6532 36.118 25.1015 36.1054 24.3868C36.1054 24.0107 36.1054 23.622 36.1054 23.2458C36.1054 21.1144 36.1054 18.9954 36.1054 16.8639C36.1054 16.7009 36.1054 16.5379 36.118 16.3874C36.118 16.2746 36.1811 16.1994 36.3073 16.1994C36.4334 16.1868 36.547 16.1868 36.6731 16.1868C38.6664 16.1868 40.6722 16.1868 42.6654 16.1868C42.7663 16.1868 42.8673 16.1868 42.9682 16.1868C43.1953 16.1994 43.2331 16.237 43.2457 16.4877C43.2583 16.6507 43.2457 16.8137 43.2457 16.9642C43.2457 19.2963 43.2457 21.6159 43.2457 23.948C43.2457 24.111 43.2457 24.274 43.2457 24.4244C43.2331 25.1893 43.599 25.766 44.2171 26.1923C44.747 26.5559 45.3273 26.744 45.958 26.8318C46.122 26.8569 46.2734 26.8694 46.4374 26.8694C47.5476 26.8694 48.6577 26.8819 49.7679 26.8819C50.0454 26.8819 50.0707 26.8443 50.0707 26.5685C50.0707 25.5278 50.0707 24.4871 50.0707 23.4339C50.0707 22.5562 50.0707 21.666 50.058 20.7884C50.0454 19.6725 50.3356 18.6443 50.8907 17.6914C51.5593 16.5128 52.4676 15.5725 53.603 14.8202C55.1925 13.767 56.946 13.1651 58.851 12.9645C60.9703 12.7388 62.9888 13.0648 64.9442 13.8798C66.294 14.444 67.4925 15.259 68.4891 16.3373C68.6657 16.5379 68.855 16.6131 69.1199 16.6131C70.3562 16.6006 71.5799 16.5881 72.8162 16.6131C74.9608 16.6633 76.954 17.2526 78.7707 18.381C79.9187 19.0957 80.8648 20.011 81.5713 21.1645C82.202 22.2052 82.53 23.3211 82.53 24.5373C82.53 25.2018 82.5427 25.8663 82.5553 26.5183C82.5553 26.8443 82.5931 26.8694 82.8959 26.8694C83.2617 26.8819 83.6276 26.8694 83.9808 26.8694C84.7251 26.8694 85.4694 26.8694 86.2263 26.8694C86.7057 26.8694 87.1977 26.8318 87.6645 26.7064C88.0934 26.581 88.4971 26.418 88.863 26.1547C89.4811 25.7033 89.8217 25.114 89.8217 24.3116C89.8091 21.829 89.8091 19.3339 89.8217 16.8514C89.8217 16.1241 89.7208 16.1743 90.503 16.1743C92.4205 16.1743 94.338 16.1743 96.2556 16.1743C96.3817 16.1743 96.4953 16.1743 96.6214 16.1743C96.8611 16.1868 96.8863 16.2119 96.899 16.4627C96.899 16.6257 96.899 16.7887 96.899 16.9391C96.899 19.2712 96.899 21.5908 96.899 23.9229C96.899 24.0608 96.899 24.1988 96.899 24.3492C96.8737 25.2394 97.2774 25.904 98.0217 26.3428C99.1445 27.0073 100.318 27.07 101.491 26.4933C102.399 26.0419 102.879 25.3272 102.879 24.2865C102.866 21.8165 102.879 19.3465 102.879 16.889C102.879 16.0865 102.778 16.1868 103.585 16.1743C105.503 16.1743 107.42 16.1743 109.338 16.1743C109.502 16.1743 109.666 16.1743 109.817 16.1868C109.931 16.1994 109.994 16.2746 110.006 16.3874C110.019 16.563 110.019 16.751 110.019 16.9266C110.019 19.2963 110.019 21.666 110.019 24.0232C110.019 24.1862 110.019 24.3492 110.019 24.4997C110.019 25.2645 110.372 25.8538 110.99 26.2676C112.201 27.07 113.652 27.0324 114.762 26.3428C115.481 25.904 115.86 25.252 115.86 24.3868C115.847 21.9043 115.86 19.4092 115.86 16.9266C115.86 16.751 115.86 16.563 115.86 16.3874C115.86 16.237 115.961 16.1743 116.087 16.1743C116.188 16.1743 116.289 16.1743 116.39 16.1743C118.408 16.1743 120.427 16.1743 122.445 16.1743C123.025 16.1743 122.988 16.1994 122.988 16.6884C122.988 19.3214 122.988 21.9419 122.988 24.5749C122.988 25.7284 122.685 26.7942 122.104 27.7847C121.512 28.8003 120.717 29.6529 119.745 30.3425C118.08 31.5211 116.226 32.1856 114.195 32.3862C112.151 32.5994 110.17 32.3235 108.265 31.5462C107.723 31.3205 107.206 31.0572 106.701 30.7562C106.537 30.6559 106.398 30.6058 106.209 30.7186C104.329 31.8847 102.223 32.3361 100.04 32.4489C98.6777 32.5116 97.3531 32.2734 96.0537 31.8471C95.2716 31.5963 94.5147 31.2578 93.7956 30.844C93.619 30.7562 93.4802 30.681 93.3288 30.6058ZM57.0974 23.6972C57.0974 24.6752 57.0974 25.6657 57.0974 26.6437C57.0974 26.8819 57.1479 26.9321 57.375 26.9321C58.359 26.9321 59.3556 26.9446 60.3396 26.9195C60.8694 26.907 61.3867 26.7942 61.8534 26.5434C62.6734 26.1171 63.1402 25.4651 63.1402 24.5247C63.1402 23.296 63.1402 22.0798 63.1402 20.851C63.1402 20.6128 63.115 20.3746 63.0393 20.1364C62.8122 19.4217 62.3202 18.9452 61.6264 18.6694C60.5667 18.2431 59.5196 18.3309 58.5103 18.7948C57.5768 19.2336 57.0722 19.9734 57.0848 21.0391C57.11 21.9293 57.0974 22.8196 57.0974 23.6972ZM22.0393 23.6972C22.0393 22.8697 22.0393 22.0547 22.0393 21.2272C22.0393 20.9639 22.0267 20.7006 21.9888 20.4498C21.9005 19.7978 21.5473 19.2963 21.0048 18.9327C19.7811 18.1177 17.8131 18.2807 16.7282 19.2838C16.2993 19.685 16.0344 20.1614 16.0217 20.7633C16.0091 22.0422 16.0217 23.3336 16.0217 24.6125C16.0217 25.1015 16.2236 25.5027 16.539 25.8663C16.8165 26.1923 17.1697 26.418 17.5734 26.581C18.0402 26.7816 18.5322 26.8694 19.0494 26.8819C19.9199 26.8945 20.7777 26.8819 21.6482 26.8819C21.7113 26.8819 21.7744 26.8819 21.8248 26.8694C21.9636 26.8569 22.0393 26.7816 22.0393 26.6437C22.0393 26.5058 22.0393 26.3679 22.0393 26.2174C22.0393 25.3773 22.0393 24.5373 22.0393 23.6972ZM69.9399 26.8318C70.0408 26.907 70.167 26.8819 70.2805 26.8819C71.8448 26.8819 73.4217 26.8819 74.986 26.8819C75.0491 26.8819 75.1122 26.8819 75.1627 26.8819C75.3771 26.8694 75.4276 26.8192 75.4402 26.581C75.4402 25.9416 75.4402 25.3021 75.4402 24.6627C75.4402 23.8853 75.087 23.2835 74.4688 22.8321C74.0525 22.5312 73.5984 22.3431 73.0937 22.2553C72.2107 22.1049 71.3276 22.1926 70.4445 22.1801C70.2931 22.1801 70.2427 22.2929 70.2427 22.4309C70.2427 23.0452 70.2427 23.6721 70.2427 24.2865C70.2427 25.0514 70.1796 25.8036 69.9399 26.5434C69.9147 26.6312 69.8894 26.7189 69.9399 26.8318Z" fill="#1D267D"/>
<path d="M3.59516 28.5245C4.47823 28.5245 5.37393 28.5245 6.257 28.5245C6.39577 28.5245 6.53454 28.5245 6.68593 28.5245C7.02654 28.537 7.077 28.5872 7.08962 28.9006C7.10223 29.2768 7.08962 29.6655 7.08962 30.0416C7.08962 30.3676 7.11485 30.6811 7.14008 30.9945C7.22839 32.1731 7.83393 33.0633 8.72962 33.7905C9.63793 34.5428 10.6976 34.9691 11.833 35.2199C13.7758 35.6587 15.7186 35.6462 17.6361 35.1196C18.4939 34.8939 19.3266 34.5679 20.0583 34.0538C20.2853 33.8908 20.5124 33.8156 20.79 33.8156C23.2121 33.8156 25.6343 33.8031 28.0564 33.8031C28.1321 33.8031 28.2204 33.8156 28.2961 33.8282C28.3718 33.8407 28.397 33.9034 28.3844 33.9661C28.3592 34.0664 28.3213 34.1541 28.2835 34.2419C27.9429 34.9315 27.5013 35.5459 26.9841 36.1101C25.6973 37.5144 24.1583 38.5551 22.4173 39.3074C20.4998 40.1349 18.4813 40.5863 16.3998 40.7994C15.3149 40.9123 14.2173 40.9248 13.1324 40.8746C10.4705 40.7367 7.897 40.185 5.51269 38.9563C3.89793 38.1162 2.51023 37.0129 1.47577 35.4957C0.605308 34.2419 0.125923 32.8502 0.0628465 31.333C0.0250003 30.5306 0.0502303 29.7282 0.0502303 28.9257C0.0502303 28.5496 0.100692 28.4994 0.466539 28.4994C1.27393 28.4869 2.08131 28.4994 2.88869 28.4994C3.10316 28.5245 3.34285 28.5245 3.59516 28.5245Z" fill="#19A6CD"/>
<path d="M40.7225 40.9122C39.1708 40.9499 37.6191 39.696 37.5938 37.8278C37.5812 36.223 38.8302 34.6933 40.7477 34.7058C42.5391 34.7184 43.8637 36.1352 43.8385 37.8153C43.8132 39.8465 42.1228 40.9499 40.7225 40.9122Z" fill="#1D267D"/>
<path d="M107.331 10.0933C107.306 8.65136 108.467 7.00885 110.447 7.00885C112.264 7.00885 113.563 8.46328 113.563 10.1058C113.563 11.8361 112.151 13.2404 110.41 13.2278C108.694 13.2027 107.319 11.811 107.331 10.0933Z" fill="#1D267D"/>
<path d="M106.398 6.28163C104.922 6.34432 103.282 5.17826 103.244 3.23484C103.219 1.30395 104.834 0.0752033 106.373 0.0877415C108.089 0.10028 109.502 1.46695 109.502 3.17215C109.489 5.06542 107.912 6.3067 106.398 6.28163Z" fill="#1D267D"/>
<path d="M32.5226 40.9122C30.8069 40.8871 29.457 39.4954 29.457 37.7777C29.457 36.3358 30.605 34.7058 32.5983 34.7183C34.4149 34.7309 35.7016 36.1853 35.7016 37.8278C35.689 39.7336 34.0616 40.9749 32.5226 40.9122Z" fill="#1D267D"/>
<path d="M105.414 10.1309C105.452 11.648 104.19 13.2153 102.298 13.2153C100.444 13.2153 99.1821 11.6857 99.1695 10.1309C99.1569 8.58871 100.393 6.98382 102.323 7.0089C104.317 7.03397 105.477 8.67648 105.414 10.1309Z" fill="#1D267D"/>
<path d="M17.9392 7.67342C17.9392 9.27831 16.7029 10.7453 14.8989 10.808C13.1579 10.8707 11.6945 9.45385 11.6693 7.73611C11.644 6.00583 13.057 4.57648 14.7979 4.57648C16.5136 4.57648 17.9265 5.98076 17.9392 7.67342ZM15.6684 5.20339C15.6179 5.241 15.5801 5.26608 15.5549 5.29116C15.5044 5.35385 15.5422 5.42908 15.5801 5.44161C15.9207 5.59207 16.2739 5.72999 16.5641 5.98076C16.6019 6.01837 16.6902 6.00583 16.7155 5.93061C16.7407 5.88045 16.7407 5.80522 16.7155 5.76761C16.4632 5.42908 16.0721 5.27862 15.6684 5.20339ZM16.9678 6.83336C17.0056 6.80828 17.0435 6.79574 17.0561 6.77067C17.1318 6.59513 17.0813 6.39452 16.9299 6.29421C16.8795 6.26914 16.8164 6.28168 16.7785 6.34437C16.7029 6.50736 16.7533 6.65782 16.8542 6.79574C16.8795 6.82082 16.9299 6.82082 16.9678 6.83336Z" fill="#1AA5CD"/>
<path d="M26.0635 7.67342C26.114 9.15293 24.8903 10.7829 22.9728 10.808C21.3454 10.8205 19.8063 9.62938 19.8189 7.68596C19.8315 5.59207 21.5598 4.57648 22.9349 4.57648C24.6506 4.58902 26.0635 5.96822 26.0635 7.67342ZM23.982 5.20339C23.8811 5.22846 23.818 5.25354 23.818 5.31623C23.818 5.36639 23.8558 5.44161 23.8937 5.45415C24.2343 5.567 24.5623 5.71746 24.8272 5.96822C24.8777 6.01837 24.9408 5.9933 24.9912 5.94314C25.0417 5.89299 25.0543 5.8303 25.0165 5.78015C24.7515 5.42908 24.3731 5.29116 23.982 5.20339ZM25.2057 6.82082C25.2814 6.83336 25.3445 6.79574 25.3445 6.74559C25.3571 6.65782 25.3445 6.55752 25.3318 6.45721C25.3066 6.34437 25.2057 6.26914 25.13 6.30675C25.0543 6.34437 25.0291 6.4196 25.0417 6.49483C25.0543 6.58259 25.0922 6.6829 25.13 6.77067C25.1426 6.79574 25.1805 6.80828 25.2057 6.82082Z" fill="#1AA5CD"/>
<path d="M86.5919 38.9563C86.5414 38.7682 86.4783 38.5801 86.4531 38.3795C86.3774 37.7275 86.6675 37.2761 87.2857 37.1006C87.7777 36.9752 88.2823 37.0128 88.7869 37.0881C88.9005 37.1006 88.9635 37.1884 88.9635 37.3012C88.9762 37.4642 88.9762 37.6272 88.9762 37.7777C88.9762 38.1162 88.9762 38.4547 88.9888 38.8058C88.9888 38.9186 89.0392 39.0064 89.1654 39.0064C89.4808 39.0064 89.8592 39.1318 90.1115 38.9437C90.3638 38.7431 90.1872 38.3795 90.2125 38.0911C90.2251 37.9532 90.2125 37.8153 90.2125 37.6648C90.2125 37.4266 90.2755 37.3514 90.4648 37.3388C90.6666 37.3263 90.7549 37.4015 90.7549 37.6272C90.7675 38.1037 90.7549 38.5926 90.7549 39.0691C90.7549 39.0942 90.7549 39.1067 90.7549 39.1318C90.7297 39.3575 90.654 39.4452 90.4143 39.4703C90.2503 39.4829 90.0863 39.4954 89.9349 39.4954C88.1562 39.4954 86.39 39.4954 84.6112 39.4954C84.3337 39.4954 84.0562 39.4202 83.7786 39.3826C83.5263 39.3449 83.274 39.4954 83.0091 39.4954C82.7315 39.4829 82.454 39.4076 82.1765 39.3826C81.9115 39.3575 81.634 39.4954 81.3438 39.4954C81.0537 39.4954 80.7888 39.3324 80.5112 39.3826C80.2589 39.4327 80.0066 39.4829 79.7417 39.4829C79.2623 39.4829 78.7703 39.4829 78.2909 39.4829C78.0891 39.4829 77.8872 39.4829 77.6854 39.4202C77.4962 39.37 77.3448 39.37 77.1555 39.4327C77.0294 39.4703 76.878 39.4829 76.7392 39.4829C76.0706 39.4829 75.402 39.4829 74.746 39.4829C74.5063 39.4829 74.2666 39.4327 74.0269 39.37C73.4592 39.1945 73.2826 38.7055 73.4088 38.1162C73.434 38.0033 73.5475 37.9783 73.6485 37.9908C73.7494 37.9908 73.8503 38.0033 73.8882 38.1287C73.9008 38.204 73.9008 38.2917 73.9134 38.367C73.9639 38.7431 74.1152 38.8936 74.4685 38.9813C74.5442 38.9939 74.6325 39.0064 74.7082 39.0064C75.3894 39.0189 76.0832 39.0315 76.7645 39.0189C77.0799 39.0189 77.1429 38.9312 77.1555 38.6177C77.1682 37.8403 77.1555 37.0504 77.1555 36.2731C77.1555 36.1101 77.1555 35.9471 77.1555 35.7966C77.1682 35.596 77.2691 35.5208 77.4835 35.5459C77.5971 35.5584 77.6854 35.6085 77.698 35.7214C77.7106 35.8342 77.7106 35.9596 77.7106 36.085C77.7106 36.8248 77.7106 37.5645 77.7106 38.3168C77.7106 38.4547 77.7106 38.5926 77.7106 38.7431C77.7232 38.9437 77.7989 39.0189 78.0134 39.044C78.0386 39.044 78.0512 39.044 78.0765 39.044C78.7072 39.044 79.3254 39.0566 79.9562 39.044C80.2337 39.044 80.3094 38.9563 80.322 38.6804C80.3346 38.4046 80.322 38.1162 80.3346 37.8403C80.3346 37.7024 80.4229 37.6272 80.5743 37.6272C80.7509 37.6147 80.8519 37.6899 80.8519 37.8654C80.8645 38.1663 80.8519 38.4673 80.8645 38.7682C80.8645 38.9563 80.9402 39.0189 81.1168 39.044C81.1925 39.0566 81.2808 39.0691 81.3565 39.0691C81.9115 39.0816 81.9242 38.9562 81.9115 38.5299C81.9115 38.2541 81.9115 37.9657 81.9115 37.6899C81.9115 37.5144 81.9998 37.4642 82.2017 37.4767C82.3657 37.4767 82.4288 37.5269 82.4414 37.6774C82.454 37.9532 82.4414 38.2416 82.454 38.5174C82.454 38.6428 82.454 38.7556 82.4666 38.881C82.4792 38.9688 82.5423 39.0189 82.618 39.044C82.6937 39.0691 82.782 39.0691 82.8577 39.0816C83.4885 39.1067 83.4885 39.0064 83.4885 38.4923C83.4885 38.1663 83.4885 37.8529 83.4885 37.5269C83.4885 37.3388 83.5642 37.2761 83.7408 37.2636C83.9174 37.2636 84.0057 37.3263 84.0183 37.5018C84.0309 37.6272 84.0183 37.74 84.0183 37.8654C84.0183 38.1037 84.0183 38.3419 84.0183 38.5926C84.0309 39.0189 84.0688 39.0691 84.5103 39.0816C85.1789 39.0942 85.8475 39.0816 86.5035 39.0816C86.5162 39.0064 86.5414 38.9813 86.5919 38.9563ZM88.4337 38.2917C88.4337 38.1538 88.4337 38.0159 88.4337 37.878C88.4211 37.5018 88.3832 37.4642 88.03 37.4517C87.8029 37.4517 87.5885 37.4642 87.3866 37.552C87.21 37.6272 87.0839 37.7526 87.0334 37.9407C86.9703 38.1538 86.9703 38.3795 87.046 38.5926C87.1217 38.8183 87.2857 38.9563 87.5254 38.9939C87.6389 39.0189 87.7651 39.0189 87.8786 39.0315C88.4589 39.0315 88.4337 39.0566 88.4337 38.4798C88.4337 38.4171 88.4337 38.3544 88.4337 38.2917Z" fill="#1D267D"/>
<path d="M57.9676 39.0189C58.7371 39.0189 59.4814 39.0189 60.2257 39.0189C60.6673 39.0189 61.1088 39.0189 61.563 39.0064C61.8405 38.9939 61.9036 38.9312 61.9162 38.6303C61.9288 38.367 61.9162 38.1036 61.9288 37.8529C61.9288 37.6648 62.0171 37.5896 62.1811 37.5896C62.3577 37.5896 62.4461 37.6523 62.4587 37.8278C62.4713 38.0284 62.4587 38.229 62.4713 38.4296C62.4713 38.555 62.4713 38.6679 62.4839 38.7933C62.4965 38.9061 62.5596 38.9813 62.6731 38.9939C62.8371 39.0189 62.9885 39.0315 63.1525 39.0189C63.4301 39.0064 63.4931 38.9437 63.4931 38.6428C63.5057 38.3168 63.4931 38.0033 63.5057 37.6773C63.5057 37.4767 63.5688 37.4266 63.758 37.414C63.9725 37.414 64.0482 37.4767 64.0608 37.6899C64.0734 38.0284 64.0608 38.367 64.0734 38.718C64.086 38.9312 64.1491 38.9939 64.3762 39.0189C64.4771 39.0315 64.5781 39.0315 64.679 39.0315C65.0196 39.0189 65.0827 38.9562 65.0953 38.5926C65.1079 38.2165 65.0953 37.8278 65.1079 37.4517C65.1079 37.2887 65.2214 37.2134 65.3981 37.2134C65.5621 37.226 65.6504 37.3012 65.663 37.4767C65.6756 37.7777 65.663 38.0786 65.6756 38.3795C65.6756 38.5174 65.6756 38.6553 65.6882 38.8058C65.7008 38.9061 65.7765 38.9939 65.89 39.0064C66.0288 39.0189 66.1676 39.0315 66.3064 39.0315C67.1137 39.0315 67.0254 39.0816 67.0254 38.3293C67.0254 37.4893 67.0254 36.6492 67.0254 35.7966C67.0254 35.596 67.1264 35.5208 67.3408 35.5333C67.4796 35.5459 67.5679 35.6085 67.5805 35.759C67.5931 35.8593 67.5931 35.9596 67.5931 36.0599C67.5931 36.9627 67.5931 37.8654 67.5931 38.7682C67.5931 38.8058 67.5931 38.8434 67.5931 38.8936C67.5805 39.4578 67.5427 39.4954 66.9624 39.5079C66.483 39.5205 65.991 39.5832 65.5242 39.4076C65.4233 39.37 65.335 39.3951 65.234 39.4327C64.8177 39.5455 64.4014 39.5581 63.9851 39.4327C63.859 39.3951 63.7454 39.3951 63.6319 39.4452C63.4427 39.5205 63.2408 39.5205 63.039 39.5205C62.6101 39.533 62.1937 39.3951 61.7396 39.4954C61.3107 39.5957 60.8565 39.5205 60.415 39.5205C59.9734 39.5205 59.5319 39.5205 59.0777 39.5205C58.6362 39.5205 58.1947 39.5205 57.7405 39.5205C57.299 39.5205 56.8574 39.5205 56.4033 39.5205C55.9617 39.5205 55.5202 39.5205 55.066 39.5205C54.6245 39.5205 54.183 39.5205 53.7288 39.5205C53.527 39.5205 53.3251 39.5205 53.1233 39.5079C52.6187 39.4703 52.4294 39.2948 52.4294 38.7933C52.4168 38.0284 52.4294 37.2636 52.4294 36.5113C52.4294 36.2731 52.4294 36.0348 52.4421 35.7841C52.4547 35.6085 52.543 35.5459 52.7196 35.5333C52.9088 35.5333 52.9971 35.596 53.0097 35.759C53.0224 35.9596 53.0097 36.1602 53.0224 36.3608C53.0224 37.1257 53.0224 37.8905 53.0224 38.6428C53.0224 38.9312 53.0981 39.0064 53.3756 39.0189C54.1451 39.0315 54.9147 39.0189 55.6716 39.0189C55.7851 39.0189 55.8482 38.9186 55.8104 38.8183C55.722 38.5926 55.6085 38.3795 55.5076 38.1663C55.4445 38.041 55.3814 37.9156 55.331 37.7777C55.2679 37.6021 55.3184 37.4517 55.4824 37.3639C55.6085 37.2887 55.7347 37.2385 55.8608 37.1884C56.3024 37.0254 56.7691 37.0128 57.2359 37.0881C58.0433 37.2009 58.3965 37.8027 58.1316 38.5801C58.0559 38.6929 57.9297 38.7933 57.9676 39.0189ZM56.706 37.4517C56.6177 37.4642 56.5168 37.4642 56.4159 37.4893C55.7094 37.6147 55.8104 37.6648 56.0374 38.1538C56.1384 38.367 56.2519 38.5801 56.3402 38.8058C56.4159 38.9813 56.5421 39.044 56.7187 39.0315C56.7817 39.0315 56.8448 39.0315 56.8953 39.0189C57.3116 38.9688 57.6017 38.6303 57.6144 38.1789C57.627 37.7777 57.4125 37.552 56.9457 37.4767C56.8827 37.4642 56.7944 37.4642 56.706 37.4517Z" fill="#1D267D"/>
<path d="M96.3813 39.5079C96.2804 39.7085 96.3182 39.8966 96.293 40.0722C96.2678 40.2101 96.2047 40.2978 96.0659 40.3104C95.4604 40.4107 94.8549 40.4232 94.2619 40.2853C93.6816 40.1474 93.3158 39.7838 93.2149 39.1819C93.1644 38.8559 93.1644 38.5425 93.2401 38.229C93.2779 38.0535 93.3536 38.0159 93.5429 38.0159C93.6564 38.0159 93.7447 38.066 93.7447 38.1914C93.7447 38.4296 93.7321 38.6679 93.7447 38.9061C93.7825 39.4578 94.0349 39.7211 94.5899 39.8465C94.8927 39.9092 95.1955 39.9217 95.4982 39.8966C95.637 39.8841 95.7127 39.8088 95.7127 39.6584C95.7127 39.5205 95.7127 39.3825 95.7127 39.2321C95.7127 38.229 95.7127 37.226 95.7127 36.2229C95.7127 36.0599 95.7127 35.8969 95.7253 35.7465C95.7379 35.5835 95.8262 35.5082 96.0029 35.5082C96.1921 35.5082 96.293 35.5709 96.3056 35.7339C96.3182 35.8718 96.3182 36.0098 96.3182 36.1602C96.3182 36.9 96.3182 37.6397 96.3182 38.392C96.3182 38.53 96.3182 38.6679 96.3182 38.8183C96.3182 38.9312 96.3687 39.0189 96.4949 39.0189C96.7598 39.0189 97.0247 39.0315 97.277 39.0064C97.4789 38.9939 97.5545 38.9061 97.5545 38.6929C97.5672 38.3293 97.5546 37.9657 97.5672 37.6147C97.5672 37.4391 97.6681 37.3639 97.8321 37.3514C97.9961 37.3388 98.1096 37.4266 98.1222 37.5896C98.1349 37.9657 98.1222 38.3544 98.1349 38.7306C98.1349 38.9186 98.1979 38.9813 98.3872 39.0064C98.5259 39.0189 98.6647 39.0315 98.8035 39.0315C99.3712 39.0315 99.9389 39.0315 100.494 39.0315C100.696 39.0315 100.734 38.9813 100.746 38.7807C100.759 38.555 100.746 38.3419 100.746 38.1162C100.746 37.8905 100.746 37.6774 100.746 37.4517C100.746 37.3388 100.721 37.1884 100.847 37.1257C100.999 37.0504 101.163 37.0379 101.276 37.2009C101.352 37.3012 101.427 37.3137 101.528 37.2636C101.995 37.0881 102.475 37.0504 102.954 37.0755C103.131 37.0881 103.32 37.1131 103.484 37.1633C104.051 37.3137 104.342 37.6523 104.392 38.229C104.417 38.4923 104.405 38.7556 104.392 39.0064C104.354 39.3951 104.253 39.4829 103.862 39.4954C103.597 39.5079 103.332 39.5079 103.08 39.5079C101.667 39.5079 100.254 39.5079 98.8413 39.5079C98.5385 39.5079 98.2358 39.5205 97.9456 39.4076C97.8952 39.3825 97.8195 39.37 97.769 39.3826C97.3401 39.5455 96.8607 39.4578 96.3813 39.5079ZM102.525 39.0064C102.525 39.0189 102.525 39.0189 102.525 39.0064C102.828 39.0064 103.131 39.0189 103.433 39.0064C103.812 38.9939 103.862 38.9562 103.862 38.6052C103.862 38.4798 103.85 38.367 103.837 38.2416C103.799 37.878 103.585 37.6523 103.231 37.577C102.651 37.4517 102.071 37.4893 101.503 37.6899C101.39 37.7275 101.301 37.8153 101.301 37.9532C101.301 38.2165 101.289 38.4798 101.301 38.7306C101.301 38.9312 101.352 38.9813 101.554 38.9939C101.882 39.0189 102.197 39.0064 102.525 39.0064Z" fill="#1D267D"/>
<path d="M116.73 39.019C116.679 38.7431 116.629 38.5174 116.616 38.2792C116.591 37.6774 116.831 37.3388 117.398 37.1508C117.827 37.0128 118.269 37.0379 118.71 37.0881C118.824 37.1006 118.874 37.2009 118.874 37.3138C118.874 37.4266 118.811 37.5018 118.685 37.5018C118.584 37.5018 118.483 37.4893 118.382 37.4893C118.206 37.4893 118.017 37.4893 117.84 37.5144C117.247 37.6021 116.995 38.066 117.222 38.6177C117.323 38.8685 117.487 39.0064 117.777 39.0064C118.118 39.0064 118.458 39.0064 118.799 39.019C118.912 39.019 118.975 39.1067 118.988 39.2196C119.013 39.3575 118.938 39.4703 118.811 39.4829C118.685 39.4954 118.572 39.4954 118.446 39.4954C116.452 39.4954 114.446 39.4954 112.453 39.4954C112.327 39.4954 112.214 39.4954 112.087 39.4829C111.961 39.4829 111.911 39.4076 111.911 39.2948C111.898 39.1443 111.961 39.044 112.087 39.0315C112.214 39.0189 112.327 39.019 112.453 39.019C112.781 39.019 113.097 39.019 113.425 39.019C113.753 39.019 113.753 39.0064 113.753 38.6679C113.753 38.6052 113.753 38.5425 113.753 38.4923C113.778 37.9783 113.614 37.5645 112.806 37.5018C112.605 37.4893 112.403 37.5018 112.201 37.4893C112.113 37.4893 112.062 37.4266 112.05 37.3263C112.05 37.2385 112.075 37.1758 112.15 37.1257C112.188 37.1006 112.226 37.0881 112.264 37.0881C112.592 37.063 112.907 37.0504 113.223 37.1006C113.866 37.226 114.207 37.5771 114.295 38.229C114.308 38.2917 114.308 38.3544 114.308 38.4046C114.333 38.5926 114.219 38.8309 114.396 38.9688C114.56 39.0942 114.787 39.019 114.989 39.019C115.594 39.019 116.15 39.019 116.73 39.019Z" fill="#1D267D"/>
<path d="M109.527 38.3419C109.527 38.6052 109.539 38.8685 109.527 39.1192C109.514 39.3575 109.438 39.4452 109.199 39.4578C108.833 39.4829 108.467 39.4703 108.114 39.4829C107.824 39.4954 107.824 39.4954 107.748 39.7712C107.596 40.3605 107.357 40.5988 106.764 40.6614C106.411 40.6991 106.045 40.674 105.679 40.674C105.628 40.674 105.553 40.6489 105.515 40.6113C105.477 40.5737 105.464 40.4985 105.464 40.4483C105.464 40.348 105.528 40.2978 105.616 40.2853C105.792 40.2728 105.982 40.2853 106.158 40.2853C106.385 40.2853 106.6 40.2602 106.814 40.185C107.004 40.1223 107.117 39.9969 107.18 39.8089C107.243 39.6208 107.155 39.4954 106.953 39.4829C106.776 39.4703 106.587 39.4703 106.411 39.4703C106.184 39.4703 105.969 39.4202 105.767 39.3199C105.616 39.2446 105.49 39.1443 105.401 39.0064C104.985 38.4046 105.275 37.4517 105.944 37.1758C106.234 37.0504 106.524 37.0379 106.84 37.0379C107.937 37.063 107.748 37.0504 107.76 37.9532C107.76 38.0535 107.76 38.1538 107.76 38.2541C107.773 39.1193 107.66 38.9813 108.555 38.9939C108.618 38.9939 108.681 38.9939 108.732 38.9939C108.921 38.9813 108.984 38.9186 108.984 38.7306C108.997 38.4547 108.984 38.1663 108.984 37.8905C108.984 37.7651 108.972 37.6523 108.984 37.5269C108.997 37.389 109.072 37.3263 109.224 37.3137C109.413 37.3012 109.501 37.3639 109.514 37.5394C109.539 37.8278 109.527 38.0786 109.527 38.3419ZM107.205 38.2667C107.218 38.2667 107.218 38.2667 107.205 38.2667C107.205 38.1037 107.218 37.9532 107.205 37.7902C107.193 37.552 107.155 37.5018 106.94 37.4893C106.802 37.4767 106.663 37.4767 106.524 37.5018C105.931 37.577 105.654 38.0033 105.805 38.5676C105.868 38.8058 106.02 38.9688 106.259 38.9939C106.512 39.0189 106.776 39.0189 107.041 39.0189C107.168 39.0189 107.205 38.9186 107.205 38.8183C107.218 38.6303 107.205 38.4547 107.205 38.2667Z" fill="#1D267D"/>
<path d="M68.6025 37.3138C68.6025 36.8123 68.6025 36.3107 68.6025 35.8092C68.6025 35.571 68.7665 35.4581 69.0188 35.5334C69.1071 35.5584 69.1575 35.6086 69.1701 35.6964C69.1828 35.8343 69.1828 35.9722 69.1828 36.1101C69.1828 36.8499 69.1828 37.5896 69.1828 38.3294C69.1828 38.4673 69.1828 38.6052 69.1954 38.7557C69.208 38.856 69.2585 38.9437 69.372 38.9688C69.6748 39.0315 69.9775 39.019 70.2677 38.9814C70.356 38.9688 70.4065 38.8936 70.4065 38.8058C70.4191 38.5425 70.4191 38.2792 70.4191 38.0285C70.4191 37.8655 70.4065 37.7025 70.4191 37.552C70.4317 37.4141 70.52 37.3514 70.6588 37.3389C70.8354 37.3263 70.9741 37.4015 70.9741 37.5395C70.9868 38.0786 70.9868 38.6178 70.9741 39.1569C70.9741 39.345 70.8606 39.4578 70.6588 39.4578C70.1794 39.4704 69.6874 39.4954 69.208 39.4704C68.7917 39.4453 68.6025 39.2447 68.5898 38.8058C68.5898 38.3168 68.6025 37.8153 68.6025 37.3138Z" fill="#1D267D"/>
<path d="M48.1279 38.2918C48.1279 38.5927 48.1405 38.8936 48.1279 39.1945C48.1153 39.3826 48.0522 39.4453 47.863 39.4578C47.4593 39.4954 47.0556 39.508 46.6519 39.4578C46.4753 39.4327 46.2987 39.3701 46.1347 39.2948C45.8824 39.182 45.7184 38.9814 45.6553 38.7055C45.6301 38.5927 45.6048 38.4673 45.6048 38.3545C45.5796 37.6899 45.9202 37.2386 46.5762 37.1006C47.0177 37.0129 47.4593 37.0379 47.9008 37.1006C48.0774 37.1257 48.1279 37.1884 48.1279 37.389C48.1531 37.6899 48.1405 37.9908 48.1279 38.2918C48.1405 38.2918 48.1405 38.2918 48.1279 38.2918ZM47.5981 38.204C47.5981 38.0786 47.6107 37.9658 47.5981 37.8404C47.5854 37.5395 47.5476 37.4893 47.2574 37.4768C47.1439 37.4768 47.0177 37.4768 46.9042 37.4893C46.3491 37.5645 46.0968 37.878 46.1725 38.4297C46.2104 38.7181 46.3617 38.9187 46.6519 38.9688C46.8916 39.0064 47.1313 39.0064 47.371 39.0064C47.5097 39.0064 47.5981 38.9312 47.5981 38.7933C47.5981 38.6052 47.5981 38.4046 47.5981 38.204Z" fill="#1D267D"/>
<path d="M50.1337 39.4954C49.8183 39.4954 49.4903 39.4954 49.1749 39.4954C49.0235 39.4954 48.9604 39.4202 48.9604 39.2697C48.9604 39.1193 49.0235 39.0315 49.1623 39.0315C49.5281 39.0189 49.8814 39.0315 50.2472 39.0189C50.386 39.0189 50.5248 39.0189 50.6635 39.0064C50.714 39.0064 50.7771 38.9688 50.7771 38.8936C50.8023 38.6177 50.8275 38.3293 50.7392 38.066C50.6509 37.8027 50.4617 37.6397 50.1841 37.5645C49.894 37.4893 49.5912 37.5018 49.2885 37.5018C49.1749 37.5018 49.0992 37.4391 49.0992 37.3137C49.0992 37.2009 49.1623 37.1131 49.2758 37.1006C49.6921 37.063 50.1211 37.0379 50.5248 37.1758C50.9411 37.3137 51.206 37.5771 51.2943 38.0159C51.3321 38.1914 51.3574 38.367 51.3574 38.5425C51.3574 39.6709 51.4961 39.4954 50.4238 39.5079C50.3355 39.4954 50.2346 39.4954 50.1337 39.4954Z" fill="#1D267D"/>
<path d="M120.528 37.6147C120.528 38.1538 120.528 38.693 120.528 39.2321C120.528 39.4578 120.25 39.5832 120.048 39.4578C120.01 39.4327 119.973 39.3701 119.96 39.3074C119.947 39.2071 119.947 39.1068 119.947 39.0064C119.947 38.1037 119.947 37.2135 119.947 36.3107C119.947 36.2355 119.947 36.1477 119.947 36.0725C119.96 35.8343 120.237 35.7214 120.427 35.8468C120.502 35.897 120.515 35.9722 120.515 36.0474C120.515 36.411 120.515 36.7621 120.515 37.1257C120.528 37.2887 120.528 37.4517 120.528 37.6147Z" fill="#1D267D"/>
<path d="M75.4023 37.8404C75.2761 37.8404 75.1626 37.8404 75.0364 37.8404C74.885 37.8278 74.8346 37.7526 74.9103 37.6021C74.9481 37.5018 74.9607 37.4141 74.9733 37.3137C75.0112 36.9251 75.1121 36.8248 75.478 36.7746C75.5789 36.7621 75.6798 36.7621 75.7807 36.7746C75.869 36.7746 75.9447 36.8248 75.9573 36.9125C75.97 37.0003 75.9069 37.0504 75.8186 37.063C75.7176 37.0755 75.6167 37.0755 75.5158 37.1006C75.4149 37.1257 75.3518 37.2134 75.3644 37.3263C75.3644 37.4391 75.4149 37.5269 75.5284 37.5394C75.6672 37.5645 75.806 37.5645 75.9447 37.5896C75.97 37.5896 76.0078 37.6397 76.0204 37.6774C76.0456 37.74 75.9952 37.7902 75.9447 37.8153C75.9321 37.8278 75.9069 37.8404 75.8943 37.8404C75.7303 37.8404 75.5663 37.8278 75.4023 37.8404Z" fill="#1D267D"/>
<path d="M119.733 35.3829C119.657 35.2575 119.783 35.1572 119.796 35.0443C119.847 34.5553 119.947 34.4801 120.427 34.4801C120.503 34.4801 120.603 34.4801 120.629 34.5679C120.679 34.7309 120.528 34.6807 120.439 34.7058C120.364 34.7309 120.288 34.7434 120.212 34.7685C120.137 34.8061 120.086 34.8813 120.099 34.9566C120.111 35.0318 120.149 35.1196 120.238 35.1321C120.376 35.1697 120.515 35.1822 120.641 35.2073C120.679 35.2199 120.704 35.2575 120.73 35.2825C120.692 35.3202 120.654 35.3829 120.616 35.3954C120.503 35.4205 120.376 35.4205 120.263 35.4205C120.074 35.4205 119.897 35.4581 119.733 35.3829Z" fill="#1D267D"/>
<path d="M87.8155 36.4737C87.6011 36.4737 87.5254 36.3859 87.5254 36.1853C87.538 35.9973 87.6263 35.9346 87.8534 35.9346C88.03 35.9471 88.0931 36.0098 88.1057 36.1979C88.1057 36.4236 88.0426 36.4737 87.8155 36.4737Z" fill="#1D267D"/>
<path d="M46.45 36.4737C46.2229 36.4737 46.1598 36.411 46.1724 36.1853C46.1724 35.9973 46.2355 35.9597 46.4374 35.9597C46.6518 35.9597 46.7401 36.0349 46.7275 36.2355C46.7149 36.4236 46.6518 36.4737 46.45 36.4737Z" fill="#1D267D"/>
<path d="M90.755 36.4236C90.755 36.6242 90.6666 36.6994 90.4522 36.6994C90.2377 36.6994 90.1494 36.6116 90.1494 36.411C90.1494 36.223 90.263 36.1352 90.4648 36.1352C90.6666 36.1352 90.755 36.223 90.755 36.4236Z" fill="#1D267D"/>
<path d="M110.031 36.4236C110.031 36.6242 109.943 36.712 109.741 36.6994C109.565 36.6994 109.476 36.6242 109.464 36.4486C109.451 36.248 109.539 36.1352 109.729 36.1352C109.93 36.1352 110.031 36.223 110.031 36.4236Z" fill="#1D267D"/>
<path d="M98.5638 40.2101C98.5764 40.3856 98.5007 40.4734 98.3241 40.4859C98.097 40.4984 98.0087 40.4358 97.9961 40.2477C97.9961 40.0596 98.0466 39.9844 98.2232 39.9718C98.4376 39.9468 98.5512 40.022 98.5638 40.2101Z" fill="#1D267D"/>
<path d="M115.456 40.185C115.645 40.2728 115.91 40.0596 116.074 40.3355C115.897 40.5235 115.658 40.4107 115.456 40.4232C115.241 40.4358 115.014 40.4232 114.8 40.3981C114.775 40.3981 114.737 40.348 114.737 40.3104C114.737 40.2853 114.762 40.2226 114.787 40.2226C115.002 40.2101 115.229 40.1975 115.456 40.185Z" fill="#1D267D"/>
<path d="M108.997 36.4487C108.985 36.6242 108.858 36.712 108.657 36.6869C108.48 36.6743 108.392 36.549 108.417 36.3483C108.442 36.1979 108.543 36.1227 108.72 36.1352C108.909 36.1477 109.01 36.2606 108.997 36.4487Z" fill="#1D267D"/>
<path d="M70.2044 40.4859C69.99 40.4859 69.9016 40.3982 69.9143 40.2101C69.9269 40.022 70.0152 39.9468 70.2296 39.9593C70.4315 39.9593 70.5198 40.0471 70.5198 40.2477C70.5198 40.4233 70.4315 40.4985 70.2044 40.4859Z" fill="#1D267D"/>
<path d="M97.5169 40.2226C97.5169 40.3981 97.4412 40.4734 97.2646 40.4859C97.0501 40.4984 96.9366 40.4107 96.9492 40.2226C96.9492 40.0471 97.0375 39.9718 97.2141 39.9593C97.416 39.9468 97.5169 40.0345 97.5169 40.2226Z" fill="#1D267D"/>
<path d="M47.5219 35.9597C47.7112 35.9722 47.7616 36.0223 47.7616 36.2104C47.7616 36.411 47.6859 36.4737 47.4589 36.4612C47.2822 36.4486 47.2192 36.386 47.2065 36.2104C47.2065 36.0223 47.2949 35.9597 47.5219 35.9597Z" fill="#1D267D"/>
<path d="M15.6685 5.20337C16.0848 5.26606 16.4632 5.42906 16.7282 5.78013C16.7534 5.81774 16.7408 5.89297 16.7282 5.94312C16.7029 6.00582 16.6146 6.01835 16.5768 5.99328C16.2866 5.74251 15.9334 5.60459 15.5928 5.45413C15.5423 5.42906 15.5171 5.35383 15.5675 5.30367C15.5802 5.26606 15.618 5.24098 15.6685 5.20337Z" fill="#E3E4ED"/>
<path d="M16.9675 6.83336C16.9296 6.82082 16.8791 6.82082 16.8665 6.79574C16.7656 6.65782 16.7151 6.50736 16.7908 6.34437C16.8161 6.28168 16.8918 6.26914 16.9422 6.29421C17.0936 6.38198 17.1441 6.58259 17.0684 6.77067C17.0431 6.79574 16.9927 6.80828 16.9675 6.83336Z" fill="#D3D4E4"/>
<path d="M23.9819 5.20337C24.3729 5.2786 24.7514 5.41652 25.0163 5.79267C25.0542 5.84282 25.0416 5.90551 24.9911 5.95566C24.9406 6.00582 24.8776 6.01835 24.8271 5.98074C24.5496 5.72997 24.2342 5.59205 23.8936 5.46667C23.8557 5.45413 23.8179 5.3789 23.8179 5.32875C23.8179 5.26606 23.8809 5.22845 23.9819 5.20337Z" fill="#E3E4ED"/>
<path d="M25.2057 6.82079C25.1804 6.80825 25.1426 6.79571 25.13 6.77064C25.0921 6.68287 25.0669 6.5951 25.0417 6.49479C25.0291 6.41956 25.0543 6.34434 25.13 6.30672C25.2057 6.26911 25.3066 6.34434 25.3318 6.45718C25.3444 6.54495 25.3571 6.64525 25.3444 6.74556C25.3318 6.79571 25.2814 6.83333 25.2057 6.82079Z" fill="#E6E7EF"/>
</g>
<defs>
<clipPath id="clip0_139_27673">
<rect width="123" height="41" fill="white"/>
</clipPath>
</defs>
</svg>
