<svg width="156" height="156" viewBox="0 0 156 156" fill="none" xmlns="http://www.w3.org/2000/svg">
<path d="M41.3214 85.5473C42.301 82.8111 45.9483 80.443 48.7064 79.8533C49.9232 79.5944 51.2024 79.819 52.5034 79.7348C54.0001 79.6194 55.4801 79.3443 56.9182 78.9142C60.5 77.8784 64.1878 76.0469 66.4093 72.9488C68.2813 70.3249 69.105 66.9989 70.7492 64.2128C73.8349 58.9837 78.3402 53.9605 84.5365 52.6875C92.0713 51.1275 100.589 55.2709 102.661 62.9117C103.996 67.832 103.21 73.4137 101.263 78.0812C99.8463 81.4851 98.2676 84.811 96.9385 88.2555C95.5438 91.8747 94.9479 95.3067 96.8168 98.8885C98.6295 102.367 101.512 106.064 101.048 110.192C100.698 113.278 98.9353 116.881 95.8028 117.914C93.1196 118.803 90.0776 118.055 87.4599 117.29C83.1886 116.058 79.0858 114.264 75.0111 112.51C71.0082 110.788 66.9802 109.1 63.1551 107.007C60.1325 105.313 57.2152 103.437 54.4191 101.391C51.8754 99.6026 49.4492 97.6527 47.1558 95.5532C45.0248 93.5689 42.7004 91.285 41.5959 88.5301C41.1644 87.5893 41.0654 86.5299 41.3151 85.5255C41.8674 83.5911 38.8597 82.7643 38.3074 84.6956C36.5478 90.8607 43.5522 96.7419 47.6674 100.14C53.5613 105.056 60.0741 109.18 67.0395 112.404C71.5729 114.47 76.1655 116.46 80.8081 118.267C84.421 119.677 88.1838 121.044 92.0806 121.343C95.0384 121.568 97.9743 120.869 100.177 118.803C103.06 116.098 104.589 111.627 104.121 107.712C103.871 105.615 102.895 103.709 101.937 101.856C100.951 99.9368 99.525 98.0086 98.8978 95.9276C98.2988 93.9589 98.8105 92.0245 99.5031 90.1618C100.361 87.8593 101.303 85.5879 102.296 83.3384C104.598 78.1249 106.483 73.2639 106.373 67.4264C106.295 63.3017 105.182 59.2114 102.579 55.9542C99.8151 52.4972 95.7154 50.4411 91.4036 49.6424C83.666 48.2072 76.6866 51.4551 71.7039 57.3831C69.8309 59.6128 68.2179 62.0486 66.896 64.6433C66.0099 66.3937 65.4078 68.2719 64.503 70.0097C63.5982 71.7476 62.1505 73.0393 60.447 74.0377C57.3776 75.7976 53.8809 76.6733 50.3444 76.568C46.9873 76.5056 43.9827 78.1779 41.4836 80.312C40.0543 81.4601 38.956 82.9676 38.3012 84.68C37.6366 86.6113 40.6506 87.4256 41.3214 85.5473Z" fill="#1F267E"/>
<path d="M90.917 50.1695C88.5114 46.0635 87.797 41.1059 89.7158 36.6536C91.6595 32.1359 95.7467 28.5167 100.592 27.4559C105.584 26.3639 110.926 28.3638 114.27 32.1702C118.114 36.5382 118.438 42.7314 115.63 47.7234C113.184 52.0914 108.217 56.2316 102.991 56.1474C100.985 56.1131 100.985 59.2331 102.991 59.2674C108.651 59.3703 113.999 55.5047 117.194 51.0805C121.134 45.6236 121.874 38.2885 118.307 32.4354C115.106 27.1969 109 23.8242 102.842 24.0613C96.6827 24.2984 91.1042 27.9644 87.9842 33.1967C84.5334 38.9936 84.8455 45.9887 88.2119 51.7419C89.229 53.4735 91.9247 51.9073 90.9076 50.1819L90.917 50.1695Z" fill="#1F267E"/>
<path d="M63.8789 82.655C72.6727 85.1193 80.9112 89.2502 88.1463 94.823C89.7375 96.0429 91.2913 93.3348 89.7219 92.1273C82.2586 86.4067 73.7676 82.1702 64.7088 79.6473C62.7713 79.1075 61.9445 82.1152 63.8789 82.655Z" fill="#1F267E"/>
<path d="M94.1211 50.1664C93.7577 48.192 94.0389 46.1531 94.9229 44.3507C96.5765 41.2151 100.798 38.9687 104.189 40.6941C105.444 41.3602 106.435 42.4337 106.999 43.738C107.563 45.0422 107.665 46.4995 107.291 47.8701C106.436 51.0774 103.815 53.3925 100.96 54.8589C99.1723 55.7761 100.748 58.4687 102.536 57.5514C106.28 55.6295 109.671 52.2474 110.464 47.9668C111.222 43.864 109.169 39.5865 105.347 37.7862C100.898 35.6896 95.5219 37.9235 92.8294 41.7861C91.0104 44.3975 90.4644 47.8888 91.1134 50.9838C91.5252 52.9494 94.5454 52.1164 94.1211 50.157V50.1664Z" fill="#1F267E"/>
<path d="M57.5858 94.8479C59.4426 99.8582 63.106 103.993 67.8562 106.44C72.6064 108.886 78.0999 109.468 83.2572 108.07C85.1916 107.543 84.371 104.532 82.4272 105.06C73.4604 107.5 63.8445 102.788 60.5873 94.018C59.8946 92.146 56.8776 92.9572 57.5765 94.8479H57.5858Z" fill="#19A7CE"/>
<path d="M41.3992 88.0746C60.9554 95.6721 79.6077 105.417 97.0133 117.131C98.6856 118.254 100.249 115.552 98.5889 114.439C80.9477 102.591 62.0452 92.7388 42.2292 85.0638C40.3572 84.3399 39.5428 87.3538 41.3992 88.0746Z" fill="#1F267E"/>
<path d="M25.5495 87.6034C26.0026 82.0523 27.883 76.7126 31.0083 72.1025C34.1336 67.4924 38.3976 63.7686 43.3865 61.2925C45.1868 60.4001 43.608 57.7076 41.8109 58.5999C30.7037 64.113 23.378 75.2794 22.4295 87.6159C22.2735 89.6158 25.3966 89.6065 25.5495 87.6159V87.6034Z" fill="#19A7CE"/>
<path d="M118.316 104.919C116.444 115.662 111.309 125.443 103.74 133.265C102.342 134.706 104.545 136.915 105.946 135.47C113.88 127.296 119.377 117 121.327 105.749C121.667 103.787 118.66 102.941 118.316 104.919Z" fill="#19A7CE"/>
</svg>
