<svg width="40" height="40" viewBox="0 0 40 40" fill="none" xmlns="http://www.w3.org/2000/svg">
<path d="M10.4666 36.6666C13.3385 36.6666 15.6666 34.3385 15.6666 31.4666C15.6666 28.5947 13.3385 26.2666 10.4666 26.2666C7.59472 26.2666 5.2666 28.5947 5.2666 31.4666C5.2666 34.3385 7.59472 36.6666 10.4666 36.6666Z" stroke="#CCCED0" stroke-width="1.5" stroke-linecap="round" stroke-linejoin="round"/>
<path d="M34.7332 27.9999V7.66658C34.7332 3.33324 32.0165 2.73324 29.2665 3.48324L18.8665 6.31658C16.9665 6.83324 15.6665 8.33325 15.6665 10.4999V14.1166V16.5499V31.4499" stroke="#CCCED0" stroke-width="1.5" stroke-linecap="round" stroke-linejoin="round"/>
<path d="M29.5335 33.1998C32.4054 33.1998 34.7335 30.8717 34.7335 27.9998C34.7335 25.1279 32.4054 22.7998 29.5335 22.7998C26.6616 22.7998 24.3335 25.1279 24.3335 27.9998C24.3335 30.8717 26.6616 33.1998 29.5335 33.1998Z" stroke="#CCCED0" stroke-width="1.5" stroke-linecap="round" stroke-linejoin="round"/>
<path d="M15.6665 15.8665L34.7332 10.6665" stroke="#CCCED0" stroke-width="1.5" stroke-linecap="round" stroke-linejoin="round"/>
</svg>
