<svg width="16" height="16" viewBox="0 0 16 16" fill="none" xmlns="http://www.w3.org/2000/svg">
<g clip-path="url(#clip0_139_27663)">
<path d="M14.5281 12.4691C14.2862 13.0281 13.9998 13.5427 13.6679 14.0157C13.2156 14.6606 12.8452 15.1071 12.5598 15.3549C12.1173 15.7618 11.6433 15.9702 11.1357 15.9821C10.7712 15.9821 10.3317 15.8784 9.82014 15.668C9.30687 15.4586 8.83518 15.3549 8.40389 15.3549C7.95156 15.3549 7.46644 15.4586 6.94754 15.668C6.42785 15.8784 6.0092 15.988 5.68911 15.9989C5.20231 16.0196 4.71709 15.8053 4.23276 15.3549C3.92364 15.0853 3.53698 14.6231 3.07379 13.9683C2.57681 13.2691 2.16823 12.4582 1.84815 11.5338C1.50534 10.5353 1.3335 9.56845 1.3335 8.63238C1.3335 7.56012 1.56519 6.63531 2.02928 5.86032C2.39401 5.23782 2.87922 4.74677 3.48651 4.38629C4.0938 4.0258 4.74998 3.84211 5.45662 3.83035C5.84328 3.83035 6.35032 3.94996 6.98043 4.18501C7.60875 4.42086 8.0122 4.54046 8.18908 4.54046C8.32132 4.54046 8.76951 4.40061 9.52928 4.1218C10.2478 3.86324 10.8542 3.75618 11.351 3.79835C12.6971 3.90699 13.7084 4.43764 14.381 5.39367C13.1771 6.12313 12.5815 7.14482 12.5934 8.4555C12.6042 9.47641 12.9746 10.326 13.7025 11.0005C14.0323 11.3136 14.4007 11.5556 14.8106 11.7274C14.7217 11.9852 14.6279 12.2321 14.5281 12.4691ZM11.4408 0.320335C11.4408 1.12052 11.1485 1.86765 10.5658 2.55918C9.86261 3.38128 9.01207 3.85633 8.08972 3.78137C8.07797 3.68537 8.07116 3.58434 8.07116 3.47817C8.07116 2.70999 8.40557 1.88789 8.99942 1.21572C9.29591 0.87538 9.67298 0.592396 10.1303 0.366655C10.5865 0.144281 11.0181 0.0213035 11.424 0.000244141C11.4359 0.107216 11.4408 0.214195 11.4408 0.320325V0.320335Z" fill="black"/>
</g>
<defs>
<clipPath id="clip0_139_27663">
<rect width="16" height="16" fill="white"/>
</clipPath>
</defs>
</svg>
