<svg width="20" height="20" viewBox="0 0 20 20" fill="none" xmlns="http://www.w3.org/2000/svg">
<path d="M18.3333 10C18.3333 5.4 14.6 1.66667 10 1.66667C5.4 1.66667 1.66667 5.4 1.66667 10C1.66667 14.6 5.4 18.3333 10 18.3333C14.6 18.3333 18.3333 14.6 18.3333 10ZM9.55833 13.3583L7.05833 10.8583C6.93333 10.7333 6.875 10.575 6.875 10.4167C6.875 10.2583 6.93333 10.1 7.05833 9.975C7.3 9.73333 7.7 9.73333 7.94167 9.975L9.375 11.4083L9.375 7.08333C9.375 6.74167 9.65833 6.45833 10 6.45833C10.3417 6.45833 10.625 6.74167 10.625 7.08333L10.625 11.4083L12.0583 9.975C12.3 9.73333 12.7 9.73333 12.9417 9.975C13.1833 10.2167 13.1833 10.6167 12.9417 10.8583L10.4417 13.3583C10.2 13.6 9.8 13.6 9.55833 13.3583Z" fill="white"/>
</svg>
