<svg width="140" height="125" viewBox="0 0 140 125" fill="none" xmlns="http://www.w3.org/2000/svg">
<g clip-path="url(#clip0_139_61060)">
<path fill-rule="evenodd" clip-rule="evenodd" d="M120.274 9.52336C120.038 9.46886 119.808 9.40622 119.582 9.33366C119.243 9.22494 118.921 9.07104 118.589 8.94471C118.449 8.89123 118.08 8.75742 118.03 8.72909C117.602 8.47979 117.685 8.08468 117.717 7.9724C117.731 7.91748 117.892 7.3606 118.53 7.49099C119.31 7.64996 120.056 7.90669 120.747 8.25223C121.4 8.38732 122.085 8.43879 122.74 8.40285C125.344 8.25937 126.382 6.35567 127.259 4.19C127.392 3.85614 127.766 3.6888 128.103 3.80847C128.443 3.92917 128.628 4.29567 128.52 4.63835C128.136 5.8927 128.214 8.43411 128.914 9.59213C129.06 9.83445 129.531 10.1357 129.98 10.4618C130.603 10.9154 131.205 11.3974 131.401 11.7383C131.432 11.7901 131.72 12.3837 131.737 12.532C131.775 12.8876 131.587 13.0813 131.448 13.178C131.309 13.2746 131.081 13.3546 130.781 13.2998C130.468 13.2425 129.899 12.9447 129.769 12.9018C129.295 12.7464 128.357 12.4642 127.506 12.33C127.047 12.2578 126.618 12.2057 126.353 12.3045C125.373 12.67 125.039 13.7671 124.787 14.7031C124.757 14.8102 124.729 14.9183 124.699 15.0251C124.656 15.4307 124.576 15.8473 124.455 16.2723C124.272 16.9145 123.667 16.7813 123.628 16.7713C123.541 16.7487 123.102 16.6159 123.125 16.0844C123.129 16.0268 123.201 15.6213 123.228 15.4649C123.267 15.2469 123.316 15.0309 123.368 14.8152C123.586 12.455 122.233 10.5615 120.274 9.52336ZM122.826 9.7425C124.786 9.63136 126.072 8.76149 127.019 7.49042L127.018 7.49066C127.114 8.5696 127.359 9.61689 127.765 10.2863C127.918 10.5402 128.3 10.8734 128.743 11.2146C128.249 11.0946 127.714 10.9878 127.239 10.9423C126.697 10.89 126.215 10.9227 125.885 11.0455C125.248 11.2829 124.769 11.7139 124.403 12.2389C124.078 11.2931 123.532 10.4515 122.826 9.7425Z" fill="#F9A775"/>
</g>
<g clip-path="url(#clip1_139_61060)">
<path fill-rule="evenodd" clip-rule="evenodd" d="M130.504 114.373C130.352 114.338 130.204 114.297 130.059 114.251C129.842 114.181 129.634 114.082 129.421 114.001C129.331 113.966 129.094 113.88 129.062 113.862C128.787 113.702 128.84 113.448 128.86 113.376C128.87 113.341 128.973 112.983 129.383 113.067C129.885 113.169 130.364 113.334 130.808 113.556C131.227 113.643 131.668 113.676 132.088 113.653C133.762 113.56 134.429 112.337 134.992 110.945C135.077 110.731 135.318 110.623 135.535 110.7C135.753 110.778 135.872 111.013 135.803 111.234C135.556 112.04 135.606 113.673 136.055 114.417C136.15 114.572 136.452 114.766 136.741 114.976C137.141 115.267 137.528 115.577 137.654 115.796C137.674 115.829 137.859 116.211 137.87 116.306C137.894 116.534 137.774 116.659 137.684 116.721C137.595 116.783 137.448 116.834 137.256 116.799C137.054 116.762 136.689 116.571 136.605 116.543C136.301 116.444 135.698 116.262 135.151 116.176C134.856 116.13 134.58 116.096 134.41 116.16C133.78 116.394 133.566 117.1 133.404 117.701C133.384 117.77 133.367 117.839 133.347 117.908C133.32 118.168 133.268 118.436 133.19 118.709C133.073 119.122 132.684 119.036 132.659 119.03C132.603 119.015 132.321 118.93 132.336 118.589C132.338 118.552 132.385 118.291 132.402 118.19C132.427 118.05 132.458 117.912 132.492 117.773C132.632 116.256 131.762 115.04 130.504 114.373ZM132.144 114.513C133.403 114.442 134.229 113.883 134.838 113.066L134.838 113.066C134.899 113.76 135.057 114.433 135.317 114.863C135.416 115.026 135.661 115.24 135.946 115.459C135.628 115.382 135.285 115.314 134.979 115.284C134.631 115.251 134.321 115.272 134.109 115.351C133.7 115.503 133.392 115.78 133.157 116.118C132.948 115.51 132.597 114.969 132.144 114.513Z" fill="#F9A775"/>
</g>
<g clip-path="url(#clip2_139_61060)">
<path fill-rule="evenodd" clip-rule="evenodd" d="M3.76632 117.4C3.5892 117.359 3.41682 117.312 3.24752 117.258C2.99351 117.176 2.75139 117.061 2.50288 116.966C2.39741 116.926 2.1207 116.826 2.08373 116.805C1.76231 116.618 1.82436 116.321 1.84844 116.237C1.85901 116.196 1.98022 115.778 2.45864 115.876C3.04375 115.995 3.60274 116.188 4.12099 116.447C4.61103 116.548 5.12494 116.587 5.61594 116.56C7.56893 116.452 8.34752 115.024 9.0049 113.4C9.10458 113.15 9.38571 113.024 9.63848 113.114C9.89311 113.205 10.0319 113.479 9.95128 113.737C9.66292 114.677 9.72156 116.583 10.2462 117.452C10.356 117.634 10.7093 117.859 11.046 118.104C11.5131 118.444 11.9649 118.806 12.1116 119.062C12.1347 119.1 12.3511 119.545 12.3637 119.657C12.3925 119.923 12.2514 120.069 12.1472 120.141C12.0429 120.214 11.8718 120.274 11.6468 120.233C11.4117 120.19 10.9854 119.966 10.8876 119.934C10.5325 119.818 9.82881 119.606 9.1902 119.505C8.8463 119.451 8.52448 119.412 8.32579 119.486C7.59034 119.76 7.34006 120.583 7.15091 121.285C7.12846 121.365 7.10786 121.446 7.08548 121.527C7.05287 121.831 6.99283 122.143 6.90183 122.462C6.76498 122.944 6.31142 122.844 6.28182 122.836C6.21689 122.819 5.88751 122.72 5.90484 122.321C5.90751 122.278 5.96188 121.974 5.98229 121.856C6.01094 121.693 6.04773 121.531 6.08661 121.369C6.25066 119.599 5.23554 118.179 3.76632 117.4ZM5.68049 117.565C7.15015 117.481 8.11472 116.829 8.82485 115.876L8.82477 115.876C8.89639 116.685 9.0804 117.47 9.38432 117.972C9.49931 118.163 9.78585 118.413 10.1179 118.669C9.74745 118.579 9.34673 118.499 8.99014 118.464C8.58335 118.425 8.22204 118.45 7.97441 118.542C7.49697 118.72 7.13803 119.043 6.86321 119.437C6.61926 118.728 6.20978 118.096 5.68049 117.565Z" fill="#F9A775" fill-opacity="0.6"/>
</g>
<defs>
<clipPath id="clip0_139_61060">
<rect width="15.0026" height="15.0026" fill="white" transform="translate(115.252 13.887) scale(1.00235) rotate(-67.4384)"/>
</clipPath>
<clipPath id="clip1_139_61060">
<rect width="9.64038" height="9.64038" fill="white" transform="translate(127.277 117.177) scale(1.00235) rotate(-67.4384)"/>
</clipPath>
<clipPath id="clip2_139_61060">
<rect width="11.2519" height="11.2519" fill="white" transform="translate(0 120.673) scale(1.00235) rotate(-67.4384)"/>
</clipPath>
</defs>
</svg>
