<svg width="20" height="20" viewBox="0 0 20 20" fill="none" xmlns="http://www.w3.org/2000/svg">
<path d="M10.0004 3.87495C6.01711 3.87495 2.77544 7.11662 2.77544 11.0999C2.77544 15.0833 6.01711 18.3333 10.0004 18.3333C13.9838 18.3333 17.2254 15.0916 17.2254 11.1083C17.2254 7.12495 13.9838 3.87495 10.0004 3.87495ZM10.6254 10.8333C10.6254 11.175 10.3421 11.4583 10.0004 11.4583C9.65877 11.4583 9.37544 11.175 9.37544 10.8333V6.66662C9.37544 6.32495 9.65877 6.04162 10.0004 6.04162C10.3421 6.04162 10.6254 6.32495 10.6254 6.66662V10.8333Z" fill="white"/>
<path d="M12.4079 2.875H7.59119C7.25785 2.875 6.99119 2.60833 6.99119 2.275C6.99119 1.94167 7.25785 1.66667 7.59119 1.66667H12.4079C12.7412 1.66667 13.0079 1.93333 13.0079 2.26667C13.0079 2.6 12.7412 2.875 12.4079 2.875Z" fill="white"/>
</svg>
