<svg width="129" height="145" viewBox="0 0 129 145" fill="none" xmlns="http://www.w3.org/2000/svg">
<g opacity="0.5">
<path d="M0.371464 77.5091C0.681444 62.2255 8.38126 29.6226 36.7007 21.4796C72.0999 11.3009 97.6868 28.6268 117.834 0.215357" stroke="white" stroke-width="0.74025"/>
<path d="M69.642 144.81C61.7835 131.725 50.895 99.9918 70.2098 77.7431C94.3532 49.9322 124.914 50.6914 126.642 15.7471" stroke="white" stroke-width="0.74025"/>
<path d="M6.93275 84.2515C6.46933 68.9839 12.5051 36.044 40.3553 26.4248C75.1681 14.401 101.579 30.3409 120.249 0.927173" stroke="white" stroke-width="0.74025"/>
<path d="M13.461 90.8603C12.2242 75.6448 16.5771 42.4472 43.8829 31.3809C78.015 17.548 105.181 32.07 122.321 1.72786" stroke="white" stroke-width="0.74025"/>
<path d="M19.9454 97.3386C17.9374 82.212 20.5934 48.8386 47.2806 36.3572C80.6398 20.7556 108.488 33.8294 124.05 2.63605" stroke="white" stroke-width="0.74025"/>
<path d="M26.387 103.688C23.6121 88.688 24.5614 55.222 50.558 41.3611C83.0537 24.0351 111.512 35.633 125.452 3.66853" stroke="white" stroke-width="0.74025"/>
<path d="M32.7755 109.913C29.2398 95.0761 28.4774 61.6021 53.7128 46.4006C85.2572 27.3987 114.25 37.4958 126.529 4.84286" stroke="white" stroke-width="0.74025"/>
<path d="M39.1044 116.014C34.8162 101.379 32.3415 67.9817 56.7474 51.4817C87.2548 30.8567 116.706 39.4312 127.288 6.17468" stroke="white" stroke-width="0.74025"/>
<path d="M45.3636 121.997C40.3332 107.599 36.15 74.3646 59.6602 56.6116C89.048 34.4203 118.879 41.4538 127.734 7.68048" stroke="white" stroke-width="0.74025"/>
<path d="M51.5549 127.864C45.7945 113.74 39.9114 80.7543 62.462 61.7968C90.6503 38.1 120.784 43.5777 127.884 9.37602" stroke="white" stroke-width="0.74025"/>
<path d="M57.6687 133.618C51.1924 119.806 43.6222 87.1532 65.1519 67.043C92.064 41.9053 122.42 45.8161 127.745 11.2758" stroke="white" stroke-width="0.74025"/>
<path d="M63.6995 139.265C56.5232 125.799 47.2831 93.5647 67.7333 72.3565C93.296 45.8462 123.794 48.1829 127.327 13.3948" stroke="white" stroke-width="0.74025"/>
</g>
</svg>
