<svg width="46" height="46" viewBox="0 0 46 46" fill="none" xmlns="http://www.w3.org/2000/svg">
<path d="M23 0C18.451 0 14.0042 1.34893 10.2219 3.8762C6.43956 6.40347 3.4916 9.99558 1.75078 14.1983C0.00996544 18.401 -0.445511 23.0255 0.441949 27.4871C1.32941 31.9486 3.51995 36.0468 6.73655 39.2635C9.95316 42.4801 14.0514 44.6706 18.5129 45.5581C22.9745 46.4455 27.599 45.99 31.8017 44.2492C36.0044 42.5084 39.5965 39.5604 42.1238 35.7781C44.6511 31.9958 46 27.549 46 23C45.993 16.9022 43.5675 11.0561 39.2557 6.74433C34.9439 2.43252 29.0978 0.00704775 23 0ZM31.7563 25.5916L24.2531 33.0949C23.9204 33.4266 23.4698 33.6129 23 33.6129C22.5302 33.6129 22.0796 33.4266 21.747 33.0949L14.2437 25.5916C13.9125 25.2598 13.7266 24.81 13.7269 24.3411C13.7271 23.8723 13.9135 23.4227 14.245 23.0912C14.5766 22.7596 15.0261 22.5733 15.495 22.573C15.9638 22.5728 16.4136 22.7587 16.7455 23.0898L21.2308 27.5751V14.1538C21.2308 13.6846 21.4172 13.2346 21.749 12.9028C22.0808 12.571 22.5308 12.3846 23 12.3846C23.4692 12.3846 23.9192 12.571 24.251 12.9028C24.5828 13.2346 24.7692 13.6846 24.7692 14.1538V27.5751L29.2545 23.0898C29.5864 22.7587 30.0362 22.5728 30.505 22.573C30.9739 22.5733 31.4235 22.7596 31.755 23.0912C32.0865 23.4227 32.2729 23.8723 32.2731 24.3411C32.2734 24.81 32.0875 25.2598 31.7563 25.5916Z" fill="#19A7CE"/>
</svg>
