<svg width="12" height="17" viewBox="0 0 12 17" fill="none" xmlns="http://www.w3.org/2000/svg">
<path d="M5.98278 0C3.75575 0 1.94522 1.81053 1.94522 4.03756C1.94522 6.22209 3.65375 7.99012 5.88078 8.06662C5.94878 8.05812 6.01678 8.05812 6.06778 8.06662C6.08478 8.06662 6.09328 8.06662 6.11028 8.06662C6.11878 8.06662 6.11878 8.06662 6.12728 8.06662C8.30332 7.99012 10.0118 6.22209 10.0203 4.03756C10.0203 1.81053 8.20982 0 5.98278 0Z" fill="white"/>
<path d="M10.3022 10.3275C7.93062 8.74647 4.06306 8.74647 1.67453 10.3275C0.595009 11.05 0 12.0275 0 13.073C0 14.1185 0.595009 15.0876 1.66603 15.8016C2.85604 16.6006 4.42007 17.0001 5.98409 17.0001C7.54811 17.0001 9.11214 16.6006 10.3022 15.8016C11.3732 15.0791 11.9682 14.11 11.9682 13.056C11.9597 12.0105 11.3732 11.0415 10.3022 10.3275Z" fill="white"/>
</svg>
