<svg width="24" height="24" viewBox="0 0 24 24" fill="none" xmlns="http://www.w3.org/2000/svg">
<path d="M22 12C22 6.48 17.52 2 12 2C6.48 2 2 6.48 2 12C2 17.52 6.48 22 12 22C17.52 22 22 17.52 22 12ZM11.47 16.03L8.47 13.03C8.32 12.88 8.25 12.69 8.25 12.5C8.25 12.31 8.32 12.12 8.47 11.97C8.76 11.68 9.24 11.68 9.53 11.97L11.25 13.69L11.25 8.5C11.25 8.09 11.59 7.75 12 7.75C12.41 7.75 12.75 8.09 12.75 8.5L12.75 13.69L14.47 11.97C14.76 11.68 15.24 11.68 15.53 11.97C15.82 12.26 15.82 12.74 15.53 13.03L12.53 16.03C12.24 16.32 11.76 16.32 11.47 16.03Z" fill="#19A7CE"/>
</svg>
