<svg width="140" height="140" viewBox="0 0 140 140" fill="none" xmlns="http://www.w3.org/2000/svg">
<mask id="mask0_139_61042" style="mask-type:alpha" maskUnits="userSpaceOnUse" x="0" y="0" width="140" height="140">
<circle cx="70" cy="70" r="70" fill="url(#paint0_linear_139_61042)"/>
</mask>
<g mask="url(#mask0_139_61042)">
<g opacity="0.5">
<path d="M3.26426 99.8279C-4.86609 87.2326 -16.476 56.2526 2.12734 33.0949C25.3815 4.14774 55.7282 3.27353 56.5571 -31.5733" stroke="white" stroke-width="0.74025"/>
<path d="M98.5369 115.541C84.9049 109.303 58.4435 89.445 61.6549 59.9145C65.6692 23.0014 90.7729 5.92834 72.7127 -23.8846" stroke="white" stroke-width="0.74025"/>
<path d="M12.5063 101.612C3.73621 89.4539 -9.4584 59.115 7.92389 35.0273C29.6518 4.91761 59.9128 2.47705 58.9406 -32.366" stroke="white" stroke-width="0.74025"/>
<path d="M21.6437 103.308C12.2573 91.6188 -2.48681 62.0019 13.628 37.0484C33.7716 5.85665 63.8662 1.85624 61.0956 -32.8901" stroke="white" stroke-width="0.74025"/>
<path d="M30.6716 104.92C20.6939 93.7313 4.43964 64.9155 19.244 39.163C37.7496 6.97237 67.5973 1.4228 63.0356 -33.1341" stroke="white" stroke-width="0.74025"/>
<path d="M39.5867 106.454C29.0444 95.796 11.3234 67.8583 24.7778 41.3754C41.5958 8.27187 71.1171 1.18796 64.7765 -33.0871" stroke="white" stroke-width="0.74025"/>
<path d="M48.3847 107.917C37.3059 97.8173 18.1654 70.8323 30.234 43.6898C45.3196 9.76173 74.4355 1.16239 66.333 -32.7394" stroke="white" stroke-width="0.74025"/>
<path d="M57.062 109.314C45.4763 99.8 24.9675 73.8397 35.6179 46.1101C48.9309 11.448 77.5638 1.35621 67.7209 -32.0818" stroke="white" stroke-width="0.74025"/>
<path d="M65.6154 110.652C53.5538 101.749 31.7314 76.8829 40.9353 48.6402C52.4401 13.3368 80.5134 1.77944 68.9564 -31.1055" stroke="white" stroke-width="0.74025"/>
<path d="M74.0421 111.936C61.5367 103.668 38.459 79.9625 46.1917 51.2821C55.8576 15.4315 83.2965 2.43953 70.0563 -29.8046" stroke="white" stroke-width="0.74025"/>
<path d="M82.3394 113.175C69.4236 105.564 45.1522 83.0823 51.3932 54.0407C59.1943 17.7387 85.9255 3.34672 71.0374 -28.1704" stroke="white" stroke-width="0.74025"/>
<path d="M90.5051 114.374C77.2134 107.44 51.8132 86.2419 56.5457 56.9167C62.4613 20.2602 88.4134 4.50669 71.9172 -26.1994" stroke="white" stroke-width="0.74025"/>
</g>
<g filter="url(#filter0_d_139_61042)">
<rect x="24.9785" y="96.9033" width="78" height="106" rx="10" transform="rotate(-49.194 24.9785 96.9033)" fill="white"/>
</g>
<g filter="url(#filter1_d_139_61042)">
<rect x="51.3682" y="104.593" width="56.1131" height="76.2562" rx="7.19398" transform="rotate(-49.194 51.3682 104.593)" fill="#E6F9FF"/>
</g>
<path d="M19.9817 90.7391C30.1377 90.7391 38.3985 98.8682 38.3985 108.863C38.3985 118.858 30.1377 126.987 19.9817 126.987C9.82536 126.987 1.56508 118.858 1.56508 108.863C1.56508 98.8682 9.83126 90.7391 19.9817 90.7391ZM19.9817 83.2759C5.62524 83.2759 -6.01855 94.729 -6.01855 108.863C-6.01855 122.992 5.61934 134.45 19.9817 134.45C34.3381 134.45 45.9814 122.997 45.9814 108.863C45.9814 94.729 34.3381 83.2759 19.9817 83.2759Z" fill="white"/>
</g>
<defs>
<filter id="filter0_d_139_61042" x="11.083" y="31.9673" width="162.999" height="160.103" filterUnits="userSpaceOnUse" color-interpolation-filters="sRGB">
<feFlood flood-opacity="0" result="BackgroundImageFix"/>
<feColorMatrix in="SourceAlpha" type="matrix" values="0 0 0 0 0 0 0 0 0 0 0 0 0 0 0 0 0 0 127 0" result="hardAlpha"/>
<feOffset dx="2" dy="10"/>
<feGaussianBlur stdDeviation="10"/>
<feComposite in2="hardAlpha" operator="out"/>
<feColorMatrix type="matrix" values="0 0 0 0 0.254902 0 0 0 0 0.219608 0 0 0 0 0.498039 0 0 0 0.08 0"/>
<feBlend mode="normal" in2="BackgroundImageFix" result="effect1_dropShadow_139_61042"/>
<feBlend mode="normal" in="SourceGraphic" in2="effect1_dropShadow_139_61042" result="shape"/>
</filter>
<filter id="filter1_d_139_61042" x="41.3716" y="57.8783" width="117.261" height="115.178" filterUnits="userSpaceOnUse" color-interpolation-filters="sRGB">
<feFlood flood-opacity="0" result="BackgroundImageFix"/>
<feColorMatrix in="SourceAlpha" type="matrix" values="0 0 0 0 0 0 0 0 0 0 0 0 0 0 0 0 0 0 127 0" result="hardAlpha"/>
<feOffset dx="1.4388" dy="7.19398"/>
<feGaussianBlur stdDeviation="7.19398"/>
<feComposite in2="hardAlpha" operator="out"/>
<feColorMatrix type="matrix" values="0 0 0 0 0.254902 0 0 0 0 0.219608 0 0 0 0 0.498039 0 0 0 0.08 0"/>
<feBlend mode="normal" in2="BackgroundImageFix" result="effect1_dropShadow_139_61042"/>
<feBlend mode="normal" in="SourceGraphic" in2="effect1_dropShadow_139_61042" result="shape"/>
</filter>
<linearGradient id="paint0_linear_139_61042" x1="111.996" y1="-81.1367" x2="-119.004" y2="439.363" gradientUnits="userSpaceOnUse">
<stop stop-color="#19A7CE"/>
<stop offset="1" stop-color="white" stop-opacity="0.24"/>
</linearGradient>
</defs>
</svg>
