<svg width="19" height="19" viewBox="0 0 19 19" fill="none" xmlns="http://www.w3.org/2000/svg">
<path d="M15.5888 5.81869C15.3909 5.55744 15.0188 5.50203 14.7576 5.69994C14.4963 5.89786 14.4409 6.26994 14.6388 6.53119C15.4938 7.67119 15.9451 9.00119 15.9451 10.3787C15.9451 13.9333 13.0555 16.8229 9.50091 16.8229C5.94633 16.8229 3.05674 13.9333 3.05674 10.3787C3.05674 6.82411 5.94633 3.94244 9.50091 3.94244C9.96008 3.94244 10.4272 3.99786 10.9338 4.11661C10.9576 4.12453 10.9813 4.11661 11.013 4.11661C11.0288 4.11661 11.0526 4.13244 11.0684 4.13244C11.0922 4.13244 11.108 4.12453 11.1317 4.12453C11.1634 4.12453 11.1872 4.11661 11.2109 4.10869C11.2505 4.10078 11.2901 4.08494 11.3297 4.06119C11.3534 4.04536 11.3851 4.03744 11.4088 4.02161C11.4167 4.01369 11.4326 4.01369 11.4405 4.00578C11.4642 3.98994 11.4722 3.96619 11.488 3.95036C11.5197 3.91869 11.5434 3.89494 11.5672 3.85536C11.5909 3.82369 11.5988 3.78411 11.6147 3.75244C11.6226 3.72869 11.6384 3.70494 11.6463 3.68119C11.6463 3.66536 11.6463 3.65744 11.6463 3.64161C11.6542 3.60203 11.6542 3.56244 11.6463 3.52286C11.6463 3.48328 11.6463 3.45161 11.6384 3.41203C11.6305 3.38036 11.6147 3.34869 11.5988 3.30911C11.583 3.26953 11.5672 3.22994 11.5434 3.19828C11.5355 3.18244 11.5355 3.17453 11.5276 3.16661L9.96008 1.21119C9.75424 0.957861 9.38216 0.918278 9.12883 1.11619C8.8755 1.32203 8.83591 1.69411 9.03383 1.94744L9.68299 2.75494C9.61966 2.75494 9.55633 2.74703 9.49299 2.74703C5.28924 2.74703 1.86133 6.16703 1.86133 10.3787C1.86133 14.5904 5.28133 18.0104 9.49299 18.0104C13.7047 18.0104 17.1247 14.5904 17.1247 10.3787C17.1326 8.73994 16.5942 7.16453 15.5888 5.81869Z" fill="white"/>
<path d="M7.55157 13.1971C7.22699 13.1971 6.95782 12.9279 6.95782 12.6034V9.91962L6.80741 10.0938C6.58574 10.3392 6.21366 10.355 5.96824 10.1413C5.72282 9.91962 5.70699 9.54753 5.92074 9.30212L7.10824 7.98003C7.27449 7.79795 7.53574 7.73462 7.76532 7.8217C7.99491 7.90878 8.14532 8.13045 8.14532 8.37587V12.6113C8.14532 12.9359 7.88407 13.1971 7.55157 13.1971Z" fill="white"/>
<path d="M11.0833 13.1971C9.88 13.1971 8.90625 12.2233 8.90625 11.02V9.95125C8.90625 8.74792 9.88 7.77417 11.0833 7.77417C12.2867 7.77417 13.2604 8.74792 13.2604 9.95125V11.02C13.2604 12.2233 12.2867 13.1971 11.0833 13.1971ZM11.0833 8.96959C10.5371 8.96959 10.0938 9.41292 10.0938 9.95917V11.0279C10.0938 11.5742 10.5371 12.0175 11.0833 12.0175C11.6296 12.0175 12.0729 11.5742 12.0729 11.0279V9.95917C12.0729 9.41292 11.6296 8.96959 11.0833 8.96959Z" fill="white"/>
</svg>
