<svg width="35" height="35" viewBox="0 0 35 35" fill="none" xmlns="http://www.w3.org/2000/svg">
<ellipse cx="17.0628" cy="17.5647" rx="16.0591" ry="16.561" fill="white"/>
<path d="M29.4927 30.3065C28.9414 30.7659 28.3901 31.2253 27.8389 31.6847C27.6551 31.7765 27.4714 31.8684 27.2876 31.9603C23.5206 34.5329 19.3861 35.3598 14.8841 34.8085C12.5872 34.5329 10.474 33.6141 8.36078 32.5116C8.08515 32.3278 7.80952 32.0522 7.53388 31.8684C5.69633 30.5821 4.04253 29.1121 2.94 27.0908C2.94 26.907 2.94 26.8151 2.75625 26.7233C2.84812 24.5182 4.04253 22.8644 6.61511 23.0481C8.63642 23.2319 10.6577 22.9563 12.679 22.3131C12.7709 24.0588 13.5059 24.8857 14.976 25.0695C15.8948 25.1613 16.7217 24.9776 17.4567 24.4263C19.7536 22.4969 21.9587 20.6593 24.2556 18.7299C25.5419 17.6274 25.5419 16.433 24.2556 15.2385C23.4287 14.5035 22.6018 13.8604 21.7749 13.1254C22.0506 11.5634 22.2343 9.90964 22.4181 8.34772C22.6018 5.68326 24.715 4.02947 27.2876 4.12134C27.8389 4.12134 28.482 4.21322 29.0333 4.3051C29.1251 4.3051 29.1252 4.3051 29.1252 4.39698C29.1252 4.58074 29.3089 4.67261 29.4927 4.67261C32.4327 7.33706 34.0865 10.5528 34.7297 14.4116C35.7403 20.7512 33.9028 25.9882 29.4927 30.3065ZM33.2597 18.8218C33.2597 18.9137 33.2597 18.7299 33.2597 18.638C33.0759 17.7192 32.0652 16.8923 31.2383 16.9842C30.3195 17.0761 29.4927 17.9949 29.3089 19.0974C28.8495 22.1294 27.4713 24.5182 25.0825 26.4476C23.3368 27.8258 21.4074 28.4689 19.2942 28.9283C18.2836 29.1121 17.6404 30.1227 17.8242 31.0415C18.0079 32.0522 19.1105 32.7872 20.1211 32.6034C24.2556 31.8684 27.6551 29.939 30.2277 26.6314C31.9734 24.4263 32.984 21.8537 33.2597 18.8218Z" fill="#1389A9"/>
<path d="M10.5663 1.36531C12.312 0.814045 14.0576 0.262778 15.9871 0.0790222C19.9378 -0.288489 23.6129 0.63029 26.9205 2.74348C27.6555 3.20287 28.4824 3.66226 29.0337 4.39728C28.4824 4.3054 27.8393 4.21352 27.288 4.21352C24.6236 4.21352 22.6023 5.86732 22.4185 8.43989C22.3266 10.0937 22.051 11.6556 21.7754 13.2175C20.3053 12.0231 18.8353 10.7368 17.3652 9.54243C16.3546 8.71553 15.252 8.62365 14.1495 9.17492C13.047 9.63431 12.7714 10.5531 12.7714 11.6556C12.7714 15.2388 12.7714 18.8221 12.7714 22.4053C10.8419 23.0485 8.8206 23.3241 6.70742 23.1403C4.13484 22.9566 2.84856 24.6104 2.84856 26.8154C2.75668 26.7236 2.6648 26.6317 2.57292 26.5398C0.275979 22.5891 -0.550914 18.2708 0.367863 13.7688C0.735373 12.115 1.37851 10.645 1.92978 9.08304C2.02166 8.99116 2.02166 8.99116 2.11353 8.89928C3.76733 6.23483 5.78864 4.02976 8.4531 2.46784C9.09624 2.10033 9.83126 1.73282 10.5663 1.36531Z" fill="#19A7CE"/>
<path d="M12.6785 22.5886C12.6785 19.0054 12.6785 15.4221 12.6785 11.8389C12.6785 10.7364 13.046 9.81758 14.0567 9.35819C15.1592 8.80693 16.2618 8.8988 17.2724 9.7257C18.7425 10.9201 20.2125 12.2064 21.6825 13.4008C22.5094 14.1358 23.3363 14.779 24.1632 15.514C25.4495 16.6165 25.4495 17.9028 24.1632 19.0054C21.9582 20.9348 19.6612 22.7723 17.3643 24.7018C16.6293 25.3449 15.8024 25.5287 14.8836 25.3449C13.5054 25.1612 12.7704 24.2424 12.6785 22.5886Z" fill="white"/>
</svg>
