<svg width="21" height="21" viewBox="0 0 21 21" fill="none" xmlns="http://www.w3.org/2000/svg">
<path fill-rule="evenodd" clip-rule="evenodd" d="M1.5242 10.5C1.5242 5.54281 5.54281 1.5242 10.5 1.5242C15.4572 1.5242 19.4758 5.54281 19.4758 10.5C19.4758 11.1866 19.3989 11.8544 19.2534 12.4954C19.1603 12.9058 19.4175 13.3141 19.828 13.4072C20.2385 13.5003 20.6467 13.2431 20.7398 12.8326C20.9102 12.0817 21 11.3009 21 10.5C21 4.70102 16.299 0 10.5 0C4.70102 0 0 4.70102 0 10.5C0 16.299 4.70102 21 10.5 21C11.3009 21 12.0817 20.9102 12.8326 20.7398C13.2431 20.6467 13.5003 20.2385 13.4072 19.828C13.3141 19.4175 12.9058 19.1603 12.4954 19.2534C11.8544 19.3989 11.1866 19.4758 10.5 19.4758C5.54281 19.4758 1.5242 15.4572 1.5242 10.5ZM12.6424 9.13674L9.78448 7.70777C8.77104 7.20105 7.57864 7.93799 7.57864 9.07105V11.929C7.57864 13.062 8.77104 13.799 9.78448 13.2923L12.6424 11.8633C13.7658 11.3016 13.7658 9.69844 12.6424 9.13674ZM17.3166 13.6331C17.7375 13.6331 18.0787 13.9743 18.0787 14.3952V16.5545H20.2379C20.6588 16.5545 21 16.8957 21 17.3166C21 17.7375 20.6588 18.0787 20.2379 18.0787H18.0787V20.2379C18.0787 20.6588 17.7375 21 17.3166 21C16.8957 21 16.5545 20.6588 16.5545 20.2379V18.0787H14.3952C13.9743 18.0787 13.6331 17.7375 13.6331 17.3166C13.6331 16.8957 13.9743 16.5545 14.3952 16.5545H16.5545V14.3952C16.5545 13.9743 16.8957 13.6331 17.3166 13.6331Z" fill="white"/>
</svg>
