<svg width="21" height="21" viewBox="0 0 21 21" fill="none" xmlns="http://www.w3.org/2000/svg">
<path fill-rule="evenodd" clip-rule="evenodd" d="M10.5001 0C7.64754 0 7.29229 0.0122501 6.17053 0.0647504C2.35551 0.239751 0.238001 2.35551 0.0630003 6.17053C0.0122501 7.29229 0 7.64929 0 10.5001C0 13.3526 0.0122501 13.7096 0.0630003 14.8296C0.238001 18.6429 2.35551 20.7621 6.17053 20.9371C7.29229 20.9879 7.64754 21.0001 10.5001 21.0001C13.3526 21.0001 13.7096 20.9879 14.8313 20.9371C18.6394 20.7621 20.7656 18.6464 20.9371 14.8296C20.9879 13.7096 21.0001 13.3526 21.0001 10.5001C21.0001 7.64929 20.9879 7.29229 20.9371 6.17053C20.7656 2.36076 18.6464 0.238001 14.8313 0.0647504C13.7096 0.0122501 13.3526 0 10.5001 0ZM10.5002 1.89356C13.3037 1.89356 13.6362 1.90407 14.744 1.95482C17.5913 2.08432 18.9178 3.43357 19.049 6.25809C19.098 7.36584 19.1085 7.6966 19.1085 10.5001C19.1085 13.3036 19.098 13.6361 19.049 14.7421C18.9178 17.5649 17.593 18.9177 14.744 19.0472C13.6362 19.0962 13.3055 19.1084 10.5002 19.1084C7.69671 19.1084 7.36421 19.0979 6.25821 19.0472C3.40569 18.9159 2.08443 17.5614 1.95318 14.7421C1.90418 13.6361 1.89193 13.3036 1.89193 10.5001C1.89193 7.6966 1.90418 7.36409 1.95318 6.25809C2.08268 3.43182 3.40919 2.08257 6.25821 1.95307C7.36421 1.90232 7.69671 1.89356 10.5002 1.89356ZM5.10826 10.5002C5.10826 7.52163 7.52327 5.10837 10.5 5.10837C13.4768 5.10837 15.8918 7.52338 15.8918 10.5002C15.8918 13.4787 13.4768 15.8919 10.5 15.8919C7.52327 15.8919 5.10826 13.4787 5.10826 10.5002ZM10.5003 14.0001C8.56656 14.0001 7.0003 12.4338 7.0003 10.5001C7.0003 8.56805 8.56656 7.00004 10.5003 7.00004C12.4323 7.00004 14.0021 8.5663 14.0021 10.5001C14.0021 12.4338 12.4323 14.0001 10.5003 14.0001ZM14.8438 4.89675C14.8438 4.20024 15.4091 3.63674 16.1038 3.63674C16.8021 3.63674 17.3656 4.20024 17.3656 4.89675C17.3656 5.59325 16.8003 6.15675 16.1038 6.15675C15.4073 6.15675 14.8438 5.5915 14.8438 4.89675Z" fill="#19A7CE"/>
</svg>
