<svg width="24" height="24" viewBox="0 0 24 24" fill="none" xmlns="http://www.w3.org/2000/svg">
<path d="M14.5396 1.87988C13.3096 1.87988 12.3096 2.87986 12.3096 4.10986V8.74988C12.3096 9.97988 13.3096 10.9799 14.5396 10.9799C15.7696 10.9799 16.7696 9.97988 16.7696 8.74988V4.10986C16.7696 2.88986 15.7696 1.87988 14.5396 1.87988Z" fill="#CCCED0"/>
<path d="M20.1802 7.10986C19.1102 7.10986 18.2402 7.97987 18.2402 9.04987V10.6199C18.2402 10.8299 18.4102 10.9999 18.6202 10.9999H20.1902C21.2602 10.9999 22.1302 10.1299 22.1302 9.05988C22.1302 7.98988 21.2502 7.10986 20.1802 7.10986Z" fill="#CCCED0"/>
<path d="M8.49988 6.98999H3.85988C2.62988 6.98999 1.62988 7.99 1.62988 9.22C1.62988 10.45 2.62988 11.45 3.85988 11.45H8.49988C9.72988 11.45 10.7299 10.45 10.7299 9.22C10.7299 7.99 9.72988 6.98999 8.49988 6.98999Z" fill="#CCCED0"/>
<path d="M8.7896 1.62012C7.7196 1.62012 6.84961 2.49012 6.84961 3.56012C6.84961 4.63012 7.7196 5.50012 8.7896 5.50012H10.3596C10.5696 5.50012 10.7396 5.33012 10.7396 5.12012V3.55011C10.7296 2.50011 9.8596 1.62012 8.7896 1.62012Z" fill="#CCCED0"/>
<path d="M9.43019 13.03C8.20019 13.03 7.2002 14.03 7.2002 15.26V19.9C7.2002 21.13 8.20019 22.13 9.43019 22.13C10.6602 22.13 11.6602 21.13 11.6602 19.9V15.26C11.6602 14.03 10.6602 13.03 9.43019 13.03Z" fill="#CCCED0"/>
<path d="M5.3596 13.03H3.7896C2.7196 13.03 1.84961 13.9 1.84961 14.97C1.84961 16.04 2.7196 16.91 3.7896 16.91C4.8596 16.91 5.7296 16.04 5.7296 14.97V13.4C5.7296 13.2 5.5596 13.03 5.3596 13.03Z" fill="#CCCED0"/>
<path d="M20.1102 12.5701H15.4702C14.2402 12.5701 13.2402 13.57 13.2402 14.8C13.2402 16.03 14.2402 17.0301 15.4702 17.0301H20.1102C21.3402 17.0301 22.3402 16.03 22.3402 14.8C22.3402 13.57 21.3402 12.5701 20.1102 12.5701Z" fill="#CCCED0"/>
<path d="M15.1805 18.47H13.6105C13.4005 18.47 13.2305 18.64 13.2305 18.85V20.42C13.2305 21.49 14.1005 22.36 15.1705 22.36C16.2405 22.36 17.1105 21.49 17.1105 20.42C17.1205 19.34 16.2505 18.47 15.1805 18.47Z" fill="#CCCED0"/>
</svg>
