<svg width="19" height="19" viewBox="0 0 19 19" fill="none" xmlns="http://www.w3.org/2000/svg">
<path d="M7.55157 13.1971C7.22699 13.1971 6.95782 12.9279 6.95782 12.6034V9.91962L6.80741 10.0938C6.58574 10.3392 6.21366 10.355 5.96824 10.1413C5.72282 9.91962 5.70699 9.54753 5.92074 9.30212L7.10824 7.98003C7.27449 7.79795 7.53574 7.73462 7.76532 7.8217C7.99491 7.90878 8.14532 8.13045 8.14532 8.37587V12.6113C8.14532 12.9359 7.88407 13.1971 7.55157 13.1971Z" fill="white"/>
<path d="M9.5007 2.75504C9.43737 2.75504 9.37404 2.76295 9.3107 2.76295L9.95987 1.95545C10.1657 1.70212 10.1261 1.32212 9.86487 1.1242C9.61154 0.918369 9.23945 0.957953 9.03362 1.2192L7.47404 3.1667C7.46612 3.17462 7.46612 3.18254 7.4582 3.19837C7.43445 3.23004 7.41862 3.26962 7.40279 3.30129C7.38695 3.34087 7.37112 3.37254 7.3632 3.4042C7.35529 3.44379 7.35529 3.47545 7.35529 3.51504C7.35529 3.55462 7.35529 3.5942 7.35529 3.63379C7.35529 3.64962 7.35529 3.65754 7.35529 3.67337C7.3632 3.69712 7.37904 3.71295 7.38695 3.74462C7.40279 3.7842 7.4107 3.81587 7.43445 3.84754C7.4582 3.8792 7.48195 3.91087 7.51362 3.94254C7.52945 3.95837 7.54529 3.98212 7.56112 3.99795C7.56904 4.00587 7.58487 4.00587 7.59279 4.01379C7.61654 4.02962 7.64029 4.04545 7.67195 4.05337C7.71154 4.07712 7.75112 4.09295 7.7907 4.10087C7.82237 4.1167 7.84612 4.1167 7.87779 4.1167C7.90154 4.1167 7.91737 4.12462 7.94112 4.12462C7.95695 4.12462 7.9807 4.1167 7.99654 4.10879C8.02029 4.10879 8.04404 4.10879 8.0757 4.10879C8.58237 3.99004 9.05737 3.93462 9.50862 3.93462C13.0632 3.93462 15.9528 6.8242 15.9528 10.3788C15.9528 13.9334 13.0632 16.823 9.50862 16.823C5.95404 16.823 3.06445 13.9334 3.06445 10.3788C3.06445 9.00129 3.5157 7.67129 4.3707 6.53129C4.56862 6.27004 4.5132 5.89795 4.25195 5.70004C3.9907 5.50212 3.61862 5.55754 3.4207 5.81879C2.40737 7.16462 1.87695 8.74004 1.87695 10.3788C1.87695 14.5825 5.29695 18.0105 9.50862 18.0105C13.7203 18.0105 17.1403 14.5905 17.1403 10.3788C17.1403 6.16712 13.7045 2.75504 9.5007 2.75504Z" fill="white"/>
<path d="M11.0833 13.1971C9.88 13.1971 8.90625 12.2233 8.90625 11.02V9.95125C8.90625 8.74792 9.88 7.77417 11.0833 7.77417C12.2867 7.77417 13.2604 8.74792 13.2604 9.95125V11.02C13.2604 12.2233 12.2867 13.1971 11.0833 13.1971ZM11.0833 8.96959C10.5371 8.96959 10.0938 9.41292 10.0938 9.95917V11.0279C10.0938 11.5742 10.5371 12.0175 11.0833 12.0175C11.6296 12.0175 12.0729 11.5742 12.0729 11.0279V9.95917C12.0729 9.41292 11.6296 8.96959 11.0833 8.96959Z" fill="white"/>
</svg>
